<?xml version="1.0" encoding="UTF-8"?>
<svg version="1.1" xmlns="http://www.w3.org/2000/svg" width="1254" height="1254">

<path d="M0 0 C2.5 1.4375 2.5 1.4375 4 4 C4.6604217 10.08888458 3.64397184 15.90792496 2.27734375 21.8203125 C2.09662827 22.63330307 1.91591278 23.44629364 1.72972107 24.28392029 C1.14358222 26.90031384 0.5418199 29.51275053 -0.0625 32.125 C-0.26663513 33.02016327 -0.47077026 33.91532654 -0.68109131 34.83761597 C-3.66151191 47.8886702 -7.00608581 60.72417363 -11.18798828 73.44726562 C-12.01595996 76.0501736 -12.7651217 78.6651834 -13.49609375 81.296875 C-16.88306126 93.34109925 -21.18382236 104.878884 -25.9375 116.4375 C-26.2264212 117.1437149 -26.51534241 117.84992981 -26.8130188 118.57754517 C-44.83347175 162.4340202 -70.89682858 204.00439612 -110 232 C-110.5455957 232.40057617 -111.09119141 232.80115234 -111.65332031 233.21386719 C-129.67112981 246.35515179 -150.11263709 255.50197229 -171 263 C-170.28924316 262.86287598 -169.57848633 262.72575195 -168.84619141 262.58447266 C-158.69562122 260.80983079 -148.66258671 260.43360966 -138.375 260.375 C-137.47558685 260.36943085 -136.57617371 260.36386169 -135.64950562 260.35812378 C-119.31443108 260.34091695 -105.207689 262.69241217 -90 269 C-89.26378418 269.2985791 -88.52756836 269.5971582 -87.76904297 269.90478516 C-74.1293767 275.61277984 -61.54069778 284.72746087 -51 295 C-50.154375 295.804375 -49.30875 296.60875 -48.4375 297.4375 C-47.633125 298.283125 -46.82875 299.12875 -46 300 C-45.33484375 300.68191406 -44.6696875 301.36382813 -43.984375 302.06640625 C-30.61453231 316.23207291 -21.78427308 334.21406478 -17 353 C-16.73815918 353.99862061 -16.47631836 354.99724121 -16.20654297 356.02612305 C-13.95078147 365.40016928 -13.5200339 374.23836797 -13.625 383.8125 C-13.63148056 384.93443756 -13.63148056 384.93443756 -13.63809204 386.07904053 C-13.7119116 396.97492327 -14.12547694 407.42954268 -17 418 C-17.18224121 418.6707959 -17.36448242 419.3415918 -17.55224609 420.03271484 C-25.05465005 447.04011557 -38.60669899 470.81058647 -58 491 C-58.45391113 491.48500977 -58.90782227 491.97001953 -59.37548828 492.46972656 C-71.86623149 505.78490025 -86.33913901 516.66625901 -102 526 C-102.65484375 526.39251953 -103.3096875 526.78503906 -103.984375 527.18945312 C-132.91793287 544.34835821 -165.27249946 555.46217024 -198.08251953 562.37792969 C-225.22254869 568.1647744 -253.79621193 577.6294773 -271 601 C-273.25953563 604.5710642 -275.31871674 608.24893977 -277.3359375 611.9609375 C-279 615 -279 615 -281 618 C-283.203125 617.96484375 -283.203125 617.96484375 -286 617 C-287.92708532 614.72700756 -289.29866427 612.15667497 -290.75 609.5625 C-300.17759131 593.66665097 -312.69570949 583.46527401 -329 575 C-330.13308594 574.401875 -331.26617188 573.80375 -332.43359375 573.1875 C-342.12788597 568.38430987 -352.27911101 566.10399626 -362.78198242 563.69506836 C-380.21564743 559.65151868 -397.06972783 554.2099275 -413 546 C-414.63582031 545.18789062 -414.63582031 545.18789062 -416.3046875 544.359375 C-428.82993289 537.93155122 -439.84977726 529.73079205 -450 520 C-451.24716797 518.84757813 -451.24716797 518.84757813 -452.51953125 517.671875 C-470.9800309 500.09044676 -485.48870151 472.03494363 -486.26184082 446.27789307 C-486.32903554 442.66401771 -486.32817261 439.05184769 -486.3125 435.4375 C-486.31233887 434.67456635 -486.31217773 433.91163269 -486.31201172 433.12557983 C-486.29809413 423.65428966 -485.72289051 414.87694438 -483.68359375 405.59765625 C-482.59923514 399.56885037 -482.62358694 393.43567831 -482.578125 387.32699585 C-482.56300579 385.31723332 -482.5298612 383.30763141 -482.49609375 381.2980957 C-482.54049991 359.44332562 -493.31756681 340.57690119 -508.45529175 325.36656189 C-510.52311988 323.33353854 -512.60517646 321.31601344 -514.69671631 319.30740356 C-524.80312355 309.56615246 -534.17215374 299.70790703 -542 288 C-542.4753418 287.2992334 -542.95068359 286.5984668 -543.44042969 285.87646484 C-551.22034579 274.25869997 -556.969365 262.02310919 -562 249 C-562.40605469 247.95368408 -562.40605469 247.95368408 -562.8203125 246.88623047 C-566.53417058 237.11536306 -568.46502545 227.28847806 -570 217 C-570.17273438 215.91267578 -570.34546875 214.82535156 -570.5234375 213.70507812 C-571.25456059 208.0208957 -571.22440802 202.34525226 -571.24023438 196.62402344 C-571.24984927 194.532784 -571.28089292 192.44256843 -571.3125 190.3515625 C-571.38784201 180.85615665 -570.24541972 172.26484903 -568 163 C-567.77554199 162.05882324 -567.55108398 161.11764648 -567.31982422 160.14794922 C-561.33759804 136.24172164 -550.69044789 113.1147476 -535 94 C-534.55430664 93.44892578 -534.10861328 92.89785156 -533.64941406 92.33007812 C-510.25459291 63.52410067 -478.9249932 43.39643983 -443 34 C-442.02289063 33.71253906 -441.04578125 33.42507813 -440.0390625 33.12890625 C-439.11867188 32.85949219 -438.19828125 32.59007812 -437.25 32.3125 C-436.47140625 32.08175781 -435.6928125 31.85101563 -434.890625 31.61328125 C-425.7870039 29.68183731 -416.48965988 29.81370701 -407.22583008 29.81469727 C-404.96611191 29.81252747 -402.70689687 29.79435842 -400.44726562 29.77539062 C-385.77540176 29.71555643 -371.71535326 30.95573989 -357.625 35.3125 C-356.64917969 35.59544922 -355.67335938 35.87839844 -354.66796875 36.16992188 C-347.81893775 38.22099291 -341.42578483 40.87689021 -335 44 C-334.22333984 44.37697021 -333.44667969 44.75394043 -332.64648438 45.14233398 C-322.83746612 50.00095671 -313.60802479 55.41496034 -304.57568359 61.59228516 C-293.9752186 68.81106403 -282.83957207 75.04795513 -271 80 C-270.11441406 80.40734375 -269.22882813 80.8146875 -268.31640625 81.234375 C-228.5629419 98.33945129 -182.53559963 90.55688263 -143.6328125 75.45703125 C-142.43398438 74.97621094 -141.23515625 74.49539063 -140 74 C-139.25250488 73.70802734 -138.50500977 73.41605469 -137.73486328 73.11523438 C-99.70050975 58.16322828 -63.73317287 37.7174225 -30.1015625 14.60546875 C-28.74309421 13.67776108 -27.38453316 12.75018922 -26.02587891 11.82275391 C-23.38519134 10.01917328 -20.76353211 8.19162312 -18.14990234 6.34912109 C-16.93385646 5.51444183 -15.71724831 4.68058098 -14.5 3.84765625 C-13.4378125 3.10523682 -12.375625 2.36281738 -11.28125 1.59790039 C-7.0659726 -0.45485189 -4.64386995 -0.40905964 0 0 Z " fill="#335F9C" transform="translate(917,263)"/>
<path d="M0 0 C0.76344727 0.04012207 1.52689453 0.08024414 2.31347656 0.12158203 C44.08092914 2.3541224 89.75704166 16.94805493 118.5625 48.8125 C121.8478965 52.63796167 124.60923216 56.75190231 127.32421875 60.99609375 C129.1884653 63.22536759 130.16339053 63.66010126 133 64 C133.25652344 63.27296875 133.51304687 62.5459375 133.77734375 61.796875 C144.01407469 38.37994417 174.97505714 21.85397288 197.57421875 12.89501953 C209.62393847 8.44913865 222.36247444 5.2527763 235 3 C235.92554688 2.83298584 236.85109375 2.66597168 237.8046875 2.49389648 C245.89917191 1.12746226 253.79697493 0.6036523 262 0.5625 C263.18722656 0.52962891 264.37445312 0.49675781 265.59765625 0.46289062 C266.74105469 0.45580078 267.88445312 0.44871094 269.0625 0.44140625 C270.59583984 0.42122437 270.59583984 0.42122437 272.16015625 0.40063477 C276.0967056 1.23146598 277.46479873 2.92176897 280 6 C280.6292057 9.0375824 280.6292057 9.0375824 280.63491821 12.48999023 C280.64901733 13.80224579 280.66311646 15.11450134 280.67764282 16.46652222 C280.66792204 17.91388286 280.65768124 19.36124008 280.64697266 20.80859375 C280.65375042 22.33815552 280.66265446 23.86770914 280.67352295 25.39724731 C280.69630444 29.54611875 280.68748504 33.69436806 280.67162752 37.84325027 C280.65896243 42.1864514 280.67071032 46.5295995 280.67855835 50.87280273 C280.68765316 58.1662756 280.67567151 65.45949527 280.65185547 72.75292969 C280.62464438 81.1833815 280.63345867 89.61322872 280.6609875 98.04366589 C280.68368245 105.28375261 280.6868768 112.52365739 280.67379415 119.7637682 C280.66600171 124.08715029 280.66495219 128.41024826 280.68147659 132.73361206 C280.69592789 136.79846349 280.68588847 140.86253598 280.65700531 144.92730331 C280.65039789 146.41842226 280.65228643 147.90960684 280.66331863 149.40069962 C280.67699561 151.43711241 280.65679705 153.47366858 280.63491821 155.51000977 C280.63303308 156.64930435 280.63114796 157.78859894 280.6292057 158.9624176 C279.80523624 162.9402505 278.07286372 164.43637502 275 167 C272.67510582 168.16244709 271.27747537 168.1389557 268.6875 168.17578125 C248.48423615 168.64895532 228.34345964 170.92730027 209 177 C208.30535645 177.20850586 207.61071289 177.41701172 206.89501953 177.63183594 C195.65163323 181.01688866 185.29389925 185.35628596 175 191 C173.58074219 191.7734375 173.58074219 191.7734375 172.1328125 192.5625 C165.92696198 196.11974765 160.46532707 200.40315989 155 205 C154.24847656 205.59296875 153.49695313 206.1859375 152.72265625 206.796875 C143.70449743 214.214271 136.69083081 224.33902089 132 235 C127.95756234 233.65252078 127.22733432 231.13446131 125.375 227.5625 C121.71137393 220.83615102 117.38953614 215.46611924 112 210 C111.38769531 209.31550781 110.77539062 208.63101563 110.14453125 207.92578125 C85.74696359 181.44739758 39.76904384 170.33300794 5.35839844 168.88916016 C4.42286133 168.85999512 3.48732422 168.83083008 2.5234375 168.80078125 C1.57734619 168.76944092 0.63125488 168.73810059 -0.34350586 168.70581055 C-2.19804376 168.65311486 -4.05321231 168.61855279 -5.90844727 168.60473633 C-10.11114137 168.49742501 -12.4184831 168.36484415 -16.05078125 166.0859375 C-19.27706687 162.6333593 -19.13284281 160.48106461 -19.16062927 155.83280945 C-19.1706749 154.51626373 -19.18072052 153.19971802 -19.19107056 151.84327698 C-19.19710091 150.3755804 -19.20298588 148.90788323 -19.20874023 147.44018555 C-19.21827639 145.90122259 -19.22816744 144.36226179 -19.23838806 142.82330322 C-19.26979787 137.76113436 -19.29004117 132.69894893 -19.30859375 127.63671875 C-19.31189107 126.77598259 -19.31518839 125.91524643 -19.31858563 125.02842736 C-19.34936505 116.91364125 -19.37607749 108.79885149 -19.39300442 100.68402386 C-19.41492238 90.29762138 -19.45691548 79.91173515 -19.52644199 69.5255391 C-19.57364965 62.2261208 -19.59793354 54.92684196 -19.6052013 47.62727576 C-19.61016216 43.26569457 -19.62528341 38.90469497 -19.6649456 34.54327965 C-19.70176924 30.43991903 -19.7102363 26.33747316 -19.69693947 22.23397827 C-19.69699349 20.7282985 -19.70731924 19.22257864 -19.7286911 17.71705055 C-19.8811123 6.37305392 -19.8811123 6.37305392 -17.71086311 2.99111366 C-12.42789049 -1.63345474 -6.49427218 -0.45999838 0 0 Z " fill="#FDFDFD" transform="translate(503,598)"/>
<path d="M0 0 C13.00899339 10.25740405 24.60254016 26.85481156 26.74609375 43.7109375 C28.10426028 66.96145506 23.88190004 85.56413328 8.68359375 103.8359375 C-2.21768049 115.47753596 -19.24145422 124.25391219 -35.296875 125.01171875 C-53.67913618 125.27303628 -70.50753274 120.50928525 -84.25390625 107.7109375 C-98.00580528 94.08501006 -106.39353311 78.55043373 -106.58398438 58.99584961 C-106.47279757 39.40380817 -102.60675105 23.38345098 -88.5859375 8.98046875 C-87.81636719 8.23152344 -87.04679688 7.48257812 -86.25390625 6.7109375 C-85.49464844 5.93105469 -84.73539063 5.15117187 -83.953125 4.34765625 C-60.71729961 -18.27970236 -25.70929694 -18.08601201 0 0 Z " fill="#FBFBFD" transform="translate(617.25390625,432.2890625)"/>
<path d="M0 0 C0.81170151 -0.0038269 1.62340302 -0.00765381 2.45970154 -0.01159668 C4.17863198 -0.01431623 5.89760378 -0.0069519 7.61645508 0.00976562 C10.21337556 0.03098269 12.80746786 0.01006906 15.40429688 -0.015625 C27.63534935 -0.03734024 37.85449194 0.9543949 47.09375 9.796875 C52.56849917 15.76932864 53.04111087 21.59886772 52.96484375 29.42578125 C52.30438244 36.71837492 48.70765039 42.38465539 43.68359375 47.53125 C40.66144194 49.68992987 39.41180193 50.53125 35.68359375 50.53125 C37.41194529 53.05264551 39.14125196 55.57337718 40.87109375 58.09375 C41.35384766 58.79822266 41.83660156 59.50269531 42.33398438 60.22851562 C42.81416016 60.92783203 43.29433594 61.62714844 43.7890625 62.34765625 C44.26851318 63.04681152 44.74796387 63.7459668 45.24194336 64.46630859 C46.63135942 66.4564324 48.06767068 68.40483204 49.51171875 70.35546875 C51.68359375 73.53125 51.68359375 73.53125 52.24609375 76.78125 C51.68359375 79.53125 51.68359375 79.53125 50.05859375 81.40625 C46.92759033 82.88935688 45.11415991 83.09134243 41.68359375 82.53125 C37.73112282 79.03234131 34.74882112 75.0759712 31.74609375 70.78125 C31.30136719 70.16870361 30.85664062 69.55615723 30.3984375 68.92504883 C28.44931701 66.21330645 26.75633143 63.68663456 25.3359375 60.65234375 C24.00505696 57.84170452 23.22040093 56.36793477 20.68359375 54.53125 C14.79399683 53.17277363 8.68882128 53.37388031 2.68359375 53.53125 C2.70715942 54.59037598 2.70715942 54.59037598 2.73120117 55.67089844 C2.79361472 58.87426729 2.83260486 62.07750812 2.87109375 65.28125 C2.89623047 66.39242187 2.92136719 67.50359375 2.94726562 68.6484375 C2.95693359 69.71835937 2.96660156 70.78828125 2.9765625 71.890625 C3.00012817 73.36740723 3.00012817 73.36740723 3.02416992 74.87402344 C2.62863763 77.96002594 1.82359242 79.3062461 -0.31640625 81.53125 C-2.47265625 82.0625 -2.47265625 82.0625 -4.81640625 82.03125 C-5.58984375 82.0415625 -6.36328125 82.051875 -7.16015625 82.0625 C-9.31640625 81.53125 -9.31640625 81.53125 -10.92591858 79.94128418 C-12.81776066 76.66228778 -12.70446179 74.21711708 -12.72045898 70.43945312 C-12.73075386 69.38019875 -12.73075386 69.38019875 -12.74125671 68.29954529 C-12.75952598 65.97032444 -12.75568773 63.64177697 -12.75 61.3125 C-12.75456139 59.69111919 -12.75986684 58.06974032 -12.7658844 56.44836426 C-12.77481543 53.05224751 -12.77239213 49.65636592 -12.76245117 46.26025391 C-12.75095453 41.90872393 -12.77118298 37.55800459 -12.80036831 33.20658112 C-12.81871508 29.8590988 -12.81844107 26.51181136 -12.81273079 23.16429138 C-12.81257742 21.55991986 -12.81863447 19.95553525 -12.83102226 18.35121155 C-12.84590459 16.10797245 -12.83527815 13.8662389 -12.81811523 11.62304688 C-12.81786598 9.70921204 -12.81786598 9.70921204 -12.81761169 7.75671387 C-12.31640625 4.53125 -12.31640625 4.53125 -10.52053833 2.12036133 C-7.216346 -0.26185955 -3.92185024 -0.04091861 0 0 Z " fill="#17157F" transform="translate(622.31640625,923.46875)"/>
<path d="M0 0 C7.46050018 4.47377967 13.04564423 10.26333186 16.3125 18.38671875 C18.71916609 28.15222923 17.36374152 36.73627149 12.625 45.51171875 C7.4921687 51.89307658 1.39531036 57.31959879 -6.6875 59.38671875 C-11.074124 59.81720732 -15.29698934 59.72024447 -19.6875 59.38671875 C-20.50605469 59.33902344 -21.32460938 59.29132812 -22.16796875 59.2421875 C-30.49801393 58.13642929 -35.99670844 51.62946755 -41.125 45.44921875 C-46.01846414 35.85802904 -47.02368636 26.59854012 -43.98828125 16.26953125 C-40.1926313 7.85755028 -33.18969356 1.66826714 -24.6875 -1.61328125 C-16.8484143 -4.22630982 -7.44893208 -3.49168691 0 0 Z " fill="#2E42B2" transform="translate(591.6875,463.61328125)"/>
<path d="M0 0 C0.75023437 -0.0515625 1.50046875 -0.103125 2.2734375 -0.15625 C5.87233525 0.84809356 7.57340099 3.53902433 9.625 6.5 C11.1668155 9.34070362 12.43808485 12.27183182 13.69921875 15.24609375 C14.06510101 16.08652222 14.43098328 16.92695068 14.80795288 17.79284668 C15.98557107 20.50375654 17.1491202 23.22045353 18.3125 25.9375 C19.1174712 27.79736221 19.9233822 29.65681793 20.73022461 31.51586914 C22.31542128 35.17235418 23.89530408 38.83105047 25.46972656 42.4921875 C27.76707267 47.8342426 30.08472262 53.16722956 32.4074707 58.49829102 C33.90366005 61.93384768 35.39252249 65.37255203 36.87915039 68.81225586 C37.42889354 70.05624094 38.01677037 71.28354074 38.625 72.5 C39.06536697 77.67431193 39.06536697 77.67431193 37.625 80.375 C35.04021378 81.82894225 32.58905041 81.95830981 29.66015625 82.09375 C26.47376614 81.16413139 25.44292157 79.20651867 23.625 76.5 C22.140625 73.45703125 22.140625 73.45703125 20.875 70.3125 C20.44703125 69.26707031 20.0190625 68.22164062 19.578125 67.14453125 C18.625 64.5 18.625 64.5 18.625 62.5 C6.085 62.5 -6.455 62.5 -19.375 62.5 C-20.035 64.81 -20.695 67.12 -21.375 69.5 C-22.15590153 71.2945718 -22.98568146 73.06911029 -23.875 74.8125 C-24.2978125 75.65425781 -24.720625 76.49601563 -25.15625 77.36328125 C-26.375 79.5 -26.375 79.5 -28.375 81.5 C-35.38581917 82.05641422 -35.38581917 82.05641422 -38.375 80.375 C-39.83251885 77.64215216 -39.57873466 75.57424755 -39.375 72.5 C-38.3527832 69.59082031 -38.3527832 69.59082031 -36.92578125 66.578125 C-36.40693359 65.46953125 -35.88808594 64.3609375 -35.35351562 63.21875 C-34.80373047 62.0740625 -34.25394531 60.929375 -33.6875 59.75 C-33.15705078 58.62078125 -32.62660156 57.4915625 -32.08007812 56.328125 C-29.27323083 50.37691994 -26.38882892 44.47081281 -23.39331055 38.61230469 C-22.12800438 35.98765137 -21.1606338 33.30496798 -20.1875 30.5625 C-18.87953143 27.2422721 -17.19202505 24.1189086 -15.56640625 20.9453125 C-14.5100999 18.77728701 -13.6261142 16.64244942 -12.8125 14.375 C-7.75527258 0.31762209 -7.75527258 0.31762209 0 0 Z " fill="#16147F" transform="translate(756.375,923.5)"/>
<path d="M0 0 C0.85464844 -0.0309375 1.70929687 -0.061875 2.58984375 -0.09375 C6.12881864 0.75605124 6.97379066 2.56180246 9.0625 5.5 C10.19977862 7.68449775 11.2662094 9.90667227 12.27734375 12.15234375 C12.56966888 12.79698074 12.86199402 13.44161774 13.16317749 14.10578918 C14.1161563 16.21312527 15.05833694 18.32508613 16 20.4375 C16.66067137 21.90609551 17.32172783 23.37451785 17.9831543 24.84277344 C24.49175134 39.32725935 30.88099188 53.87268573 37.0625 68.5 C37.64294067 69.82112793 37.64294067 69.82112793 38.23510742 71.16894531 C39.34016925 74.28229153 38.90418441 76.34368347 38.0625 79.5 C35.65903621 81.90346379 34.92349805 81.82083747 31.625 81.875 C30.84253906 81.90335938 30.06007813 81.93171875 29.25390625 81.9609375 C27.0625 81.5 27.0625 81.5 25.4453125 79.890625 C23.75795934 76.97350599 22.56060816 74.029501 21.375 70.875 C20.93800781 69.72773437 20.50101563 68.58046875 20.05078125 67.3984375 C19.0625 64.5 19.0625 64.5 19.0625 62.5 C6.5225 62.5 -6.0175 62.5 -18.9375 62.5 C-19.9275 65.8 -20.9175 69.1 -21.9375 72.5 C-23.2890625 75.19140625 -23.2890625 75.19140625 -24.5625 77.0625 C-24.98789062 77.70316406 -25.41328125 78.34382812 -25.8515625 79.00390625 C-26.9375 80.5 -26.9375 80.5 -27.9375 81.5 C-35.04711214 81.95868465 -35.04711214 81.95868465 -38 80.4375 C-39.5045265 77.32814524 -38.58585877 74.83505383 -37.9375 71.5 C-37.01006783 69.01031486 -36.05096501 66.64713314 -34.953125 64.23828125 C-34.50691803 63.23041817 -34.50691803 63.23041817 -34.05169678 62.20219421 C-33.10513847 60.06854323 -32.14680585 57.94044558 -31.1875 55.8125 C-30.24825466 53.70840628 -29.3115035 51.60321639 -28.37515259 49.49783325 C-27.76198876 48.11988389 -27.14755367 46.74249949 -26.53182983 45.36569214 C-24.7034472 41.26766143 -22.9457528 37.14808458 -21.2421875 32.99609375 C-19.3034826 28.29401692 -17.16010919 23.75963662 -14.8125 19.25 C-12.75398898 15.29193634 -10.8627597 11.41779908 -9.3828125 7.203125 C-7.32372813 1.92741695 -5.72650022 0.06889023 0 0 Z " fill="#4CAB3F" transform="translate(944.9375,923.5)"/>
<path d="M0 0 C1.57183044 -0.01407143 1.57183044 -0.01407143 3.17541504 -0.02842712 C4.30153198 -0.01719315 5.42764893 -0.00595917 6.58789062 0.00561523 C7.74913452 0.00416 8.91037842 0.00270477 10.10681152 0.00120544 C12.56130483 0.002865 15.01580847 0.01443244 17.47021484 0.03515625 C21.22994126 0.06409967 24.9882571 0.05576747 28.74804688 0.04272461 C31.13216832 0.04896225 33.51628531 0.05735339 35.90039062 0.06811523 C37.02650757 0.0651796 38.15262451 0.06224396 39.31286621 0.05921936 C40.36075317 0.07190353 41.40864014 0.08458771 42.48828125 0.09765625 C43.40887329 0.10305923 44.32946533 0.10846222 45.2779541 0.11402893 C48.24424324 0.58032421 49.6253414 1.38958952 51.74414062 3.50170898 C52.49247927 9.48841818 52.49247927 9.48841818 50.49052429 12.19917297 C48.28682608 13.84279592 47.09552171 13.86576097 44.36450195 13.84228516 C43.48381546 13.84205856 42.60312897 13.84183197 41.695755 13.84159851 C40.74879257 13.82611465 39.80183014 13.8106308 38.82617188 13.79467773 C37.85379074 13.79043289 36.88140961 13.78618805 35.87956238 13.78181458 C32.77164097 13.76501213 29.66436628 13.72735678 26.55664062 13.68920898 C24.45053019 13.67416418 22.34440961 13.66047542 20.23828125 13.64819336 C15.07311766 13.61765436 9.90935365 13.55893539 4.74414062 13.50170898 C4.74414062 20.43170898 4.74414062 27.36170898 4.74414062 34.50170898 C7.23589844 34.47850586 9.72765625 34.45530273 12.29492188 34.43139648 C14.70759573 34.41580006 17.12026398 34.40365527 19.53295898 34.3918457 C21.21006788 34.38178662 22.88715923 34.36813777 24.56420898 34.35083008 C26.97449065 34.32657747 29.38454048 34.31522509 31.79492188 34.30639648 C32.9200695 34.29091263 32.9200695 34.29091263 34.06794739 34.27511597 C37.84714842 34.27430099 39.51828461 34.35113831 42.74414062 36.50170898 C43.40742733 43.46621937 43.40742733 43.46621937 41.71606445 46.10668945 C38.64528038 48.27908764 35.41519273 47.86940893 31.79492188 47.79467773 C31.02230515 47.79043289 30.24968842 47.78618805 29.45365906 47.78181458 C26.9876307 47.76503082 24.52242167 47.72738046 22.05664062 47.68920898 C20.38412639 47.6741617 18.71159934 47.66047337 17.0390625 47.64819336 C12.94018615 47.61768063 8.84307967 47.55896266 4.74414062 47.50170898 C4.74414062 54.43170898 4.74414062 61.36170898 4.74414062 68.50170898 C9.330625 68.44950195 9.330625 68.44950195 14.00976562 68.39624023 C16.97183295 68.37284263 19.93388997 68.35462718 22.89599609 68.33691406 C24.95431121 68.32182948 27.0125942 68.30135911 29.07080078 68.27539062 C32.02970306 68.23899313 34.9881803 68.22197932 37.94726562 68.20874023 C38.86719299 68.19325638 39.78712036 68.17777252 40.73492432 68.16181946 C47.06474993 68.16015282 47.06474993 68.16015282 50.32910156 69.80126953 C51.74414062 71.50170898 51.74414062 71.50170898 52.18164062 75.00170898 C51.74414062 78.50170898 51.74414062 78.50170898 50.55065918 80.19520569 C48.0876383 81.97650203 46.42872303 81.888753 43.40234375 81.90576172 C42.31111206 81.91844589 41.21988037 81.93113007 40.09558105 81.94419861 C38.91741821 81.94126297 37.73925537 81.93832733 36.52539062 81.93530273 C35.31596802 81.94054459 34.10654541 81.94578644 32.86047363 81.95118713 C30.30168425 81.95761485 27.74286535 81.95626071 25.18408203 81.94775391 C21.25955859 81.93924242 17.33648897 81.96800044 13.41210938 81.99975586 C10.9290369 82.0013678 8.44596183 82.00079048 5.96289062 81.99780273 C4.78472778 82.00903671 3.60656494 82.02027069 2.3927002 82.03184509 C0.75585266 82.01777367 0.75585266 82.01777367 -0.9140625 82.00341797 C-1.87542114 82.0032518 -2.83677979 82.00308563 -3.82727051 82.00291443 C-6.25585938 81.50170898 -6.25585938 81.50170898 -8.06446838 79.91358948 C-9.6839821 76.63500707 -9.64443559 74.06462018 -9.65991211 70.40991211 C-9.67020699 69.35065773 -9.67020699 69.35065773 -9.68070984 68.27000427 C-9.69897911 65.94078342 -9.69514086 63.61223596 -9.68945312 61.28295898 C-9.69401452 59.66157817 -9.69931996 58.0401993 -9.70533752 56.41882324 C-9.71426856 53.02270649 -9.71184526 49.6268249 -9.7019043 46.23071289 C-9.69040765 41.87918291 -9.7106361 37.52846358 -9.73982143 33.1770401 C-9.7581682 29.82955778 -9.75789419 26.48227034 -9.75218391 23.13475037 C-9.75203055 21.53037884 -9.75808759 19.92599424 -9.77047539 18.32167053 C-9.78535772 16.07843144 -9.77473128 13.83669789 -9.75756836 11.59350586 C-9.75731911 9.67967102 -9.75731911 9.67967102 -9.75706482 7.72717285 C-9.25585938 4.50170898 -9.25585938 4.50170898 -7.55299377 2.08982849 C-4.79398563 0.18239345 -3.3331433 0.00060164 0 0 Z " fill="#13117D" transform="translate(511.255859375,923.498291015625)"/>
<path d="M0 0 C1.25139771 -0.00938095 2.50279541 -0.0187619 3.79211426 -0.02842712 C5.15894249 -0.0179491 6.52576414 -0.00658012 7.89257812 0.00561523 C9.29357986 0.00546027 10.69458204 0.00397174 12.09558105 0.00120544 C15.03119874 -0.00017907 17.96632816 0.01238732 20.90185547 0.03515625 C24.66493091 0.06354185 28.42719502 0.06080467 32.19033051 0.04806614 C35.08313935 0.04111134 37.97576063 0.0488958 40.86854553 0.06132317 C42.25601991 0.06583966 43.6435144 0.06617272 45.0309906 0.06225777 C46.96991287 0.05934787 48.90883139 0.07800431 50.84765625 0.09765625 C52.50287292 0.10576073 52.50287292 0.10576073 54.19152832 0.11402893 C56.92382812 0.50170898 56.92382812 0.50170898 58.78088379 1.90367126 C60.94981752 4.93622308 60.21038922 7.89103916 59.92382812 11.50170898 C57.92382812 13.50170898 57.92382812 13.50170898 55.40185547 13.72875977 C54.36496582 13.71828613 53.32807617 13.7078125 52.25976562 13.69702148 C51.13828125 13.69057617 50.01679688 13.68413086 48.86132812 13.67749023 C47.68570313 13.66073242 46.51007813 13.64397461 45.29882812 13.62670898 C44.11546875 13.61768555 42.93210937 13.60866211 41.71289062 13.59936523 C38.7830029 13.57573711 35.85351472 13.54279413 32.92382812 13.50170898 C32.93048996 14.29462341 32.93715179 15.08753784 32.9440155 15.90447998 C33.00414076 23.37901675 33.04980957 30.85343617 33.07926464 38.3281517 C33.09491692 42.17093985 33.11614685 46.01352808 33.15014648 49.85620117 C33.18275608 53.56500461 33.20068444 57.27361583 33.20845985 60.98255157 C33.21400054 62.3971484 33.22482024 63.81173476 33.2410183 65.22624969 C33.26281113 67.20826446 33.26405369 69.19047288 33.2644043 71.17260742 C33.27106613 72.3006781 33.27772797 73.42874878 33.28459167 74.59100342 C32.88349558 77.82711925 32.19737336 79.20035772 29.92382812 81.50170898 C27.73242188 81.99780273 27.73242188 81.99780273 25.36132812 81.93920898 C24.57628906 81.93791992 23.79125 81.93663086 22.98242188 81.93530273 C20.92382812 81.50170898 20.92382812 81.50170898 18.92382812 78.50170898 C18.68331909 75.67329407 18.68331909 75.67329407 18.69677734 72.19433594 C18.69692841 70.89321365 18.69707947 69.59209137 18.69723511 68.25154114 C18.70744843 66.83102262 18.71788042 65.41050566 18.72851562 63.98999023 C18.73224629 62.53696385 18.73509301 61.08393495 18.73709106 59.63090515 C18.74472331 55.80859417 18.76436821 51.98643544 18.78649902 48.16418457 C18.80696629 44.26304178 18.81609466 40.36187437 18.82617188 36.46069336 C18.84761456 28.80762919 18.88174548 21.15469043 18.92382812 13.50170898 C17.75811279 13.52527466 17.75811279 13.52527466 16.56884766 13.54931641 C13.06224793 13.61151249 9.55576399 13.65065105 6.04882812 13.68920898 C4.21384766 13.72691406 4.21384766 13.72691406 2.34179688 13.76538086 C0.59189453 13.77988281 0.59189453 13.77988281 -1.19335938 13.79467773 C-2.81153564 13.81824341 -2.81153564 13.81824341 -4.46240234 13.84228516 C-5.32494629 13.72989502 -6.18749023 13.61750488 -7.07617188 13.50170898 C-9.40196288 10.01302247 -9.49482645 8.6045238 -9.07617188 4.50170898 C-6.78302968 0.15583367 -4.74504283 0.00071454 0 0 Z " fill="#12107D" transform="translate(397.076171875,923.498291015625)"/>
<path d="M0 0 C2.8849816 2.15439078 3.88815762 3.32322656 4.48101807 6.91070557 C4.47213562 8.03877625 4.46325317 9.16684692 4.45410156 10.32910156 C4.45379944 11.61012756 4.45349731 12.89115356 4.45318604 14.21099854 C4.43276095 15.60421371 4.41189699 16.9974225 4.390625 18.390625 C4.38316131 19.81979582 4.37746898 21.2489769 4.37347412 22.67816162 C4.3582275 26.43327262 4.31895516 30.18776125 4.2746582 33.94262695 C4.23368387 37.77676983 4.21545856 41.61101362 4.1953125 45.4453125 C4.15245903 52.9638249 4.08422067 60.48182512 4 68 C5.31194336 67.97905273 6.62388672 67.95810547 7.97558594 67.93652344 C12.84331344 67.8641203 17.71099335 67.81819887 22.57910156 67.78027344 C24.68595382 67.76015874 26.79275025 67.73286333 28.89941406 67.69824219 C31.92787447 67.64971832 34.95559678 67.62702984 37.984375 67.609375 C39.39707672 67.57840729 39.39707672 67.57840729 40.83831787 67.54681396 C47.36649873 67.54457425 47.36649873 67.54457425 50.59863281 69.86816406 C52.35713941 72.54329988 52.55036755 73.85504254 52 77 C50.81126404 79.12290955 50.81126404 79.12290955 49 81 C46.54017639 81.5146637 46.54017639 81.5146637 43.58227539 81.53344727 C42.47425064 81.5492836 41.36622589 81.56511993 40.22462463 81.58143616 C39.02772507 81.57647629 37.8308255 81.57151642 36.59765625 81.56640625 C35.36840927 81.57260483 34.13916229 81.57880341 32.87266541 81.58518982 C29.60407069 81.59412179 26.33622324 81.58295896 23.06768799 81.56610107 C19.74871577 81.5601406 16.43012118 81.60298231 13.11132812 81.63476562 C10.58593692 81.6357169 8.06054278 81.63385756 5.53515625 81.62890625 C4.34028091 81.64216446 3.14540558 81.65542267 1.9143219 81.66908264 C0.80314499 81.65654953 -0.30803192 81.64401642 -1.45288086 81.63110352 C-2.42978378 81.63014175 -3.40668671 81.62917999 -4.41319275 81.62818909 C-7 81 -7 81 -9.31434631 78.90515137 C-11.39805405 75.31397103 -11.50708452 73.02771383 -11.51757812 68.88647461 C-11.5245874 68.18991257 -11.53159668 67.49335052 -11.53881836 66.77568054 C-11.55635569 64.48415708 -11.54479341 62.19387871 -11.53125 59.90234375 C-11.53394587 58.30481225 -11.53782908 56.70728236 -11.54284668 55.10975647 C-11.54873564 51.7666151 -11.54019749 48.42390203 -11.52148438 45.08081055 C-11.49867615 40.79765015 -11.51183275 36.51549132 -11.53577423 32.23236752 C-11.55023303 28.93547527 -11.54562628 25.63882027 -11.53526306 22.34192085 C-11.53259693 20.76267948 -11.53586157 19.18341649 -11.54518127 17.60420036 C-11.55535094 15.39693044 -11.53984396 13.19128022 -11.51757812 10.98413086 C-11.51439575 9.72902206 -11.51121338 8.47391327 -11.50793457 7.18077087 C-10.42893498 0.42389575 -6.34358648 -0.90622664 0 0 Z " fill="#181681" transform="translate(232,924)"/>
<path d="M0 0 C5.25495606 3.18687658 9.2224526 7.87816813 12 13.3125 C13.25360623 20.41626865 13.68066732 27.24453186 9.95703125 33.65234375 C5.35346232 39.7517502 -0.81563275 44.6577727 -8.5234375 45.8125 C-15.5317306 46.20594803 -22.16736967 44.32838664 -27.51953125 39.69921875 C-32.24984943 34.57055799 -35.47620841 29.29097513 -35.875 22.1875 C-35.6065946 15.88534126 -33.77903453 10.14950254 -29.56640625 5.3828125 C-21.52842993 -1.94101469 -10.36274351 -4.59211771 0 0 Z " fill="#FBFCFA" transform="translate(851.4375,606.5)"/>
<path d="M0 0 C2.55340531 2.55340531 2.90143693 4.65718442 3.875 8.125 C6.5358835 16.9653712 8.96743024 23.84934458 17 29 C23.08588839 32.06309614 29.33858998 33.71069484 36 35 C36 35.66 36 36.32 36 37 C35.16597656 37.15855469 34.33195312 37.31710937 33.47265625 37.48046875 C23.91298538 39.46248528 15.28743228 42.09579942 9 50 C4.93700114 57.07992712 3.09283254 65.17414217 1 73 C-1.28731888 69.56902168 -1.83277459 66.82334971 -2.75 62.8125 C-4.9392547 53.98683597 -8.54448451 48.25655727 -16 43 C-18.53577982 41.98732582 -20.96457459 41.10694917 -23.5625 40.3125 C-24.22185547 40.10044922 -24.88121094 39.88839844 -25.56054688 39.66992188 C-28.68293333 38.67515152 -31.80685036 37.73938071 -35 37 C-35 36.34 -35 35.68 -35 35 C-33.76636719 34.65388672 -33.76636719 34.65388672 -32.5078125 34.30078125 C-18.16499132 30.40197759 -18.16499132 30.40197759 -7.3828125 20.80078125 C-4.1224181 14.19710107 -2.11937021 7.03450537 0 0 Z " fill="#F6F6FB" transform="translate(442,390)"/>
<path d="M0 0 C1.0209375 0.02900391 1.0209375 0.02900391 2.0625 0.05859375 C3.0834375 0.06052734 3.0834375 0.06052734 4.125 0.0625 C6.74124837 0.64799107 7.47232823 1.32116152 9.0625 3.49609375 C9.45018005 6.67723083 9.45018005 6.67723083 9.46655273 10.65795898 C9.47341599 11.38348969 9.48027924 12.10902039 9.48735046 12.85653687 C9.50565954 15.25611921 9.50177522 17.65505026 9.49609375 20.0546875 C9.50065377 21.72233799 9.50595881 23.38998659 9.51197815 25.05763245 C9.52091742 28.55388011 9.51847714 32.04989946 9.50854492 35.54614258 C9.49705707 40.02660823 9.5172592 44.50628555 9.54646206 48.98664761 C9.5648093 52.43106595 9.56453454 55.87529489 9.55882454 59.31974983 C9.55867113 60.9715695 9.56473199 62.62340184 9.57711601 64.27517509 C9.59199619 66.58556406 9.58137252 68.89449076 9.56420898 71.20483398 C9.56404282 72.51926987 9.56387665 73.83370575 9.56370544 75.18797302 C9.0625 78.49609375 9.0625 78.49609375 7.25379944 80.95179749 C5.0625 82.49609375 5.0625 82.49609375 1.5 82.49609375 C-2.36999102 81.37027818 -3.04714578 80.93306939 -4.9375 77.49609375 C-5.31845093 74.27062988 -5.31845093 74.27062988 -5.32568359 70.40429688 C-5.33356903 69.3450425 -5.33356903 69.3450425 -5.34161377 68.26438904 C-5.35479431 65.93514751 -5.34608306 63.60659198 -5.3359375 61.27734375 C-5.33795881 59.65596384 -5.34087072 58.03458481 -5.34463501 56.41320801 C-5.34905571 53.01708307 -5.34263563 49.62119503 -5.32861328 46.22509766 C-5.31152138 41.87368157 -5.32136394 37.52282059 -5.33933067 33.17142487 C-5.35017547 29.82395247 -5.34671901 26.4766115 -5.3389473 23.12913513 C-5.33694721 21.52477452 -5.33939787 19.92040194 -5.34638596 18.3160553 C-5.35401209 16.07301258 -5.34238104 13.83086662 -5.32568359 11.58789062 C-5.32329681 10.31200073 -5.32091003 9.03611084 -5.31845093 7.72155762 C-4.86783927 3.90628503 -3.97862901 1.01872154 0 0 Z " fill="#4CAF39" transform="translate(1034.9375,923.50390625)"/>
<path d="M0 0 C1.0209375 -0.01160156 1.0209375 -0.01160156 2.0625 -0.0234375 C4.69693781 0.51832189 5.40813048 1.19258875 7 3.375 C7.38095093 6.56286621 7.38095093 6.56286621 7.38818359 10.55273438 C7.39344055 11.27987137 7.39869751 12.00700836 7.40411377 12.75617981 C7.41732141 15.16058816 7.40857339 17.56433487 7.3984375 19.96875 C7.40045803 21.63879524 7.40336928 23.30883962 7.40713501 24.97888184 C7.41155938 28.47933348 7.40512378 31.97955551 7.39111328 35.47998047 C7.37402119 39.96940131 7.38386179 44.45828414 7.40183067 48.94768524 C7.41266553 52.39634259 7.40922357 55.84487215 7.4014473 59.29353333 C7.39944446 60.94896 7.40190751 62.60439823 7.40888596 64.2598114 C7.41649572 66.57260926 7.40490388 68.88453296 7.38818359 71.19726562 C7.38579681 72.51392212 7.38341003 73.83057861 7.38095093 75.18713379 C7 78.375 7 78.375 5.59683228 80.29650879 C3.61485571 81.63512421 2.38178007 81.80798905 0 81.8125 C-0.680625 81.83183594 -1.36125 81.85117187 -2.0625 81.87109375 C-4 81.375 -4 81.375 -5.59683228 79.79396057 C-7.51887614 76.48049473 -7.38114899 73.99724148 -7.38818359 70.17553711 C-7.39344055 69.45800766 -7.39869751 68.74047821 -7.40411377 68.00120544 C-7.41729406 65.63469536 -7.40858404 63.2688604 -7.3984375 60.90234375 C-7.40045859 59.25614798 -7.40337032 57.60995308 -7.40713501 55.96376038 C-7.41155549 52.51636212 -7.40513549 49.06919727 -7.39111328 45.62182617 C-7.37400796 41.20081257 -7.38387259 36.7803448 -7.40183067 32.35935116 C-7.4126646 28.96130755 -7.40922424 25.56339364 -7.4014473 22.16534615 C-7.39944489 20.53503925 -7.40190598 18.9047206 -7.40888596 17.27442741 C-7.41649569 14.99765633 -7.40490464 12.72177321 -7.38818359 10.44506836 C-7.38579681 9.14919296 -7.38341003 7.85331757 -7.38095093 6.51817322 C-7 3.375 -7 3.375 -5.59683228 1.45802307 C-3.6061939 0.10790802 -2.393142 -0.0271948 0 0 Z " fill="#0E0C79" transform="translate(336,923.625)"/>
<path d="M0 0 C4.64640978 3.37920711 8.11688002 6.91073372 9.30078125 12.6875 C9.70088219 20.91814791 6.80548084 25.50802189 1.5625 31.5 C-2.70891692 33.77808902 -6.51535669 33.7134394 -11.25 33 C-16.58184475 31.29563253 -20.19049098 28.77283407 -23.25 24 C-24.90711161 19.02866518 -25.06048265 14.17009494 -24.25 9 C-18.80497115 -0.55871823 -10.30998014 -3.17230158 0 0 Z " fill="#3341B5" transform="translate(825.25,259)"/>
<path d="M0 0 C4.54266205 -0.13501968 9.081306 -0.23416045 13.625 -0.3125 C14.91019531 -0.35439453 16.19539062 -0.39628906 17.51953125 -0.43945312 C28.18381746 -0.57759155 28.18381746 -0.57759155 31.8359375 2.39453125 C35.7161388 7.06618155 35.5030556 11.09375457 35 17 C33.72073866 20.3402935 32.61245845 21.56582569 29.71875 23.6171875 C24.06964694 25.71779935 18.59567316 25.31364098 12.625 25.1875 C10.80548828 25.16719727 10.80548828 25.16719727 8.94921875 25.14648438 C5.96595432 25.11124897 2.98291941 25.05744567 0 25 C0 16.75 0 8.5 0 0 Z " fill="#F9F9FB" transform="translate(625,938)"/>
<path d="M0 0 C2.5 1.4375 2.5 1.4375 4 4 C4.70208703 10.26476101 3.55974279 16.23738343 2.13671875 22.3125 C1.94406937 23.16626221 1.75141998 24.02002441 1.55293274 24.8996582 C1.14638954 26.69228703 0.73520753 28.48386965 0.31958008 30.27441406 C-0.31028753 32.99045962 -0.92487302 35.70961937 -1.53710938 38.4296875 C-1.93660477 40.18249595 -2.33696683 41.93510713 -2.73828125 43.6875 C-2.91966141 44.48776611 -3.10104156 45.28803223 -3.28791809 46.11254883 C-4.55121872 51.52559356 -6.15754097 56.75647188 -8 62 C-8.66 61.67 -9.32 61.34 -10 61 C-9.58647671 58.03641641 -9.16498492 55.3918392 -8 52.625 C-6.6534484 49.09030205 -6.38243937 45.76065384 -6 42 C-5.34 42 -4.68 42 -4 42 C-4.185625 41.443125 -4.37125 40.88625 -4.5625 40.3125 C-5.07551165 37.600867 -4.6640724 35.65628961 -4 33 C-3.34 33 -2.68 33 -2 33 C-2.185625 32.443125 -2.37125 31.88625 -2.5625 31.3125 C-3.09651979 28.48982397 -2.68466093 26.80088561 -2 24 C-1.66406451 22.50058063 -1.33096159 21.00052509 -1 19.5 C-0.47383847 17.12049339 0.06052984 14.74577468 0.625 12.375 C1.12076082 9.23518149 1.06220345 6.17237598 1 3 C-7.12608152 2.22608747 -10.65496578 4.13772036 -17 9 C-19.2810662 10.66068372 -21.57852336 12.29822039 -23.875 13.9375 C-24.47554199 14.36949707 -25.07608398 14.80149414 -25.69482422 15.24658203 C-30.196067 18.47216896 -34.7983257 21.4922405 -39.49609375 24.42578125 C-41.82104771 25.88749177 -44.10100571 27.3981173 -46.375 28.9375 C-58.8553875 37.27965375 -71.93004798 44.63384481 -85 52 C-85.94262695 52.53149658 -85.94262695 52.53149658 -86.90429688 53.07373047 C-90.99860251 55.37282183 -95.03246546 57.58775595 -99.35546875 59.4296875 C-102.3371045 60.71437943 -105.20636184 62.10078331 -108.08374023 63.60009766 C-126.93223045 73.38552482 -147.89459878 82.98324993 -168.875 86.9375 C-171.74160808 87.49908696 -174.35243855 88.11982911 -177.125 89.0625 C-180.76762972 90.25031404 -184.18787511 90.57643057 -188 91 C-189.67056149 91.31323028 -191.33958925 91.63678515 -193 92 C-192.67 91.01 -192.34 90.02 -192 89 C-191.07703125 88.85304688 -190.1540625 88.70609375 -189.203125 88.5546875 C-172.20165124 85.69233 -156.00001167 80.33857356 -140 74 C-138.87005615 73.55986572 -138.87005615 73.55986572 -137.71728516 73.11083984 C-99.69025627 58.15740497 -63.72794369 37.71382895 -30.1015625 14.60546875 C-28.74309421 13.67776108 -27.38453316 12.75018922 -26.02587891 11.82275391 C-23.38519134 10.01917328 -20.76353211 8.19162312 -18.14990234 6.34912109 C-16.93385646 5.51444183 -15.71724831 4.68058098 -14.5 3.84765625 C-13.4378125 3.10523682 -12.375625 2.36281738 -11.28125 1.59790039 C-7.0659726 -0.45485189 -4.64386995 -0.40905964 0 0 Z " fill="#4645BF" transform="translate(917,263)"/>
<path d="M0 0 C1.0186338 0.00137466 1.0186338 0.00137466 2.05784607 0.0027771 C3.49102788 0.00881112 4.9241972 0.02455162 6.35717773 0.04931641 C8.5543444 0.08586681 10.74982647 0.09033551 12.94726562 0.08984375 C23.70090678 0.16575053 23.70090678 0.16575053 25.99609375 2.4609375 C26.45986187 9.76528533 26.45986187 9.76528533 23.99609375 13.4609375 C20.97094727 13.84912109 20.97094727 13.84912109 17.125 13.859375 C16.44686752 13.86224518 15.76873505 13.86511536 15.0700531 13.86807251 C13.63515387 13.87011472 12.2002269 13.86457377 10.76538086 13.85205078 C8.57016546 13.83602199 6.37679796 13.85187904 4.18164062 13.87109375 C2.78775635 13.86911086 1.39387323 13.86526622 0 13.859375 C-1.27029053 13.85599121 -2.54058105 13.85260742 -3.84936523 13.84912109 C-7.00390625 13.4609375 -7.00390625 13.4609375 -8.91821289 12.11962891 C-10.63201872 9.50132515 -10.37701283 7.50797454 -10.00390625 4.4609375 C-7.63563824 -0.25642658 -5.00343503 -0.03236826 0 0 Z " fill="#14127D" transform="translate(843.00390625,962.5390625)"/>
<path d="M0 0 C0.66 0 1.32 0 2 0 C3.10450255 2.52068663 4.20861043 5.04154494 5.3125 7.5625 C5.7755957 8.61920898 5.7755957 8.61920898 6.24804688 9.69726562 C6.86829707 11.11404765 7.48694115 12.53153386 8.10400391 13.94970703 C8.92757294 15.83426637 9.76582463 17.71239133 10.60546875 19.58984375 C12 23 12 23 14 30 C5.75 30 -2.5 30 -11 30 C-10.11386329 26.45545317 -9.00966503 23.27251386 -7.6875 19.875 C-7.02041016 18.15796875 -7.02041016 18.15796875 -6.33984375 16.40625 C-4.84433812 12.60426484 -3.33153895 8.80978053 -1.796875 5.0234375 C-1.14522312 3.36875282 -0.56237279 1.68711837 0 0 Z " fill="#E7E7F2" transform="translate(755,943)"/>
<path d="M0 0 C0.66 0 1.32 0 2 0 C4.50894093 5.72188319 6.7106006 11.51780419 8.83789062 17.390625 C9.99818147 20.54041197 11.12865813 23.19298719 13 26 C13 26.99 13 27.98 13 29 C5.08 29 -2.84 29 -11 29 C-9.89138577 23.45692884 -9.89138577 23.45692884 -8.1875 20.375 C-6.0336301 16.24740205 -4.46694345 12.0027187 -2.9296875 7.61328125 C-2.016622 5.04672318 -1.02727347 2.52272909 0 0 Z " fill="#F4F9F3" transform="translate(944,943)"/>
<path d="M0 0 C0.99 0.99 0.99 0.99 2 2 C-0.17146356 8.39375383 -0.17146356 8.39375383 -3.5625 10.875 C-11.67989125 13.53160077 -20.13278681 13.0775911 -28.58203125 12.9375 C-31.57880369 12.99229812 -34.09340809 13.34710498 -37 14 C-38.58145574 14.16495316 -40.1650369 14.31059936 -41.75 14.4375 C-48.80387422 15.10929755 -55.30153584 16.71643267 -62 19 C-62.76054688 19.14953125 -63.52109375 19.2990625 -64.3046875 19.453125 C-84.71860899 23.59508009 -106.49877077 32.99317032 -122 47 C-123.09054687 47.93005859 -123.09054687 47.93005859 -124.203125 48.87890625 C-128.69171778 52.70791574 -132.87715262 56.78321433 -137 61 C-138.33333333 62.33333333 -139.66666667 63.66666667 -141 65 C-135.6511189 49.12406567 -114.11619445 36.12857436 -99.98535156 28.98095703 C-73.10601156 15.88573624 -44.17450812 10.13918574 -14.41259766 9.29052734 C-13.5004248 9.2642627 -12.58825195 9.23799805 -11.6484375 9.2109375 C-10.84583496 9.19337402 -10.04323242 9.17581055 -9.21630859 9.15771484 C-7.00746032 9.00053088 -5.09910763 8.70621497 -3 8 C-1.35127493 5.4835249 -0.62687294 2.92540704 0 0 Z " fill="#3E9E68" transform="translate(783,756)"/>
<path d="M0 0 C0.99 0.495 0.99 0.495 2 1 C2 1.66 2 2.32 2 3 C1.04480469 3.4846875 0.08960938 3.969375 -0.89453125 4.46875 C-9.12847246 8.71135209 -16.68646207 13.27050024 -24 19 C-25.24330078 19.95519531 -25.24330078 19.95519531 -26.51171875 20.9296875 C-36.86106398 29.02069837 -45.97908013 37.57855393 -54 48 C-54.73992187 48.92425781 -55.47984375 49.84851563 -56.2421875 50.80078125 C-66.09109258 63.39306647 -72.91799004 77.29366079 -79 92 C-79.66 92 -80.32 92 -81 92 C-80.56053267 85.52225155 -78.1764337 80.73270917 -75.125 75.0625 C-74.63177246 74.13808105 -74.13854492 73.21366211 -73.63037109 72.26123047 C-58.00669243 43.51108013 -35.69255651 20.99486317 -7.6875 4.25 C-6.95176758 3.8070459 -6.21603516 3.3640918 -5.45800781 2.90771484 C-3.67603673 1.8713823 -1.84165099 0.92613591 0 0 Z " fill="#413FBB" transform="translate(439,310)"/>
<path d="M0 0 C2.5 1.4375 2.5 1.4375 4 4 C4.70208703 10.26476101 3.55974279 16.23738343 2.13671875 22.3125 C1.94406937 23.16626221 1.75141998 24.02002441 1.55293274 24.8996582 C1.14638954 26.69228703 0.73520753 28.48386965 0.31958008 30.27441406 C-0.31028753 32.99045962 -0.92487302 35.70961937 -1.53710938 38.4296875 C-1.93660477 40.18249595 -2.33696683 41.93510713 -2.73828125 43.6875 C-2.91966141 44.48776611 -3.10104156 45.28803223 -3.28791809 46.11254883 C-4.55121872 51.52559356 -6.15754097 56.75647188 -8 62 C-8.99 61.505 -8.99 61.505 -10 61 C-9.58647671 58.03641641 -9.16498492 55.3918392 -8 52.625 C-6.6534484 49.09030205 -6.38243937 45.76065384 -6 42 C-5.34 42 -4.68 42 -4 42 C-4.185625 41.443125 -4.37125 40.88625 -4.5625 40.3125 C-5.07551165 37.600867 -4.6640724 35.65628961 -4 33 C-3.34 33 -2.68 33 -2 33 C-2.185625 32.443125 -2.37125 31.88625 -2.5625 31.3125 C-3.09651979 28.48982397 -2.68466093 26.80088561 -2 24 C-1.66406451 22.50058063 -1.33096159 21.00052509 -1 19.5 C-0.47383847 17.12049339 0.06052984 14.74577468 0.625 12.375 C1.12076082 9.23518149 1.06220345 6.17237598 1 3 C-7.12608152 2.22608747 -10.65496578 4.13772036 -17 9 C-19.2810667 10.66068408 -21.57858524 12.29813309 -23.875 13.9375 C-24.46901611 14.36514648 -25.06303223 14.79279297 -25.67504883 15.23339844 C-30.98502739 19.04079834 -36.43685731 22.57128757 -42 26 C-40.68742938 21.83767712 -39.45044068 20.2290416 -35.6875 18.0625 C-31.63672222 15.65567182 -27.73911794 13.14832633 -23.8828125 10.4375 C-22.96798096 9.80191162 -22.05314941 9.16632324 -21.1105957 8.51147461 C-19.2690332 7.22875988 -17.43649348 5.93297681 -15.61401367 4.62329102 C-10.1161715 0.83997815 -6.70619251 -0.95483052 0 0 Z " fill="#3F3EBA" transform="translate(917,263)"/>
<path d="M0 0 C2.30365589 -0.0021831 4.60682892 -0.02039068 6.91040039 -0.03930664 C15.6611081 -0.07325462 24.47642552 -0.02443609 33.00610352 2.18530273 C33.99610352 3.17530273 33.99610352 3.17530273 35.00610352 4.18530273 C31.88150058 5.18610421 30.01640124 5.11261123 26.87329102 4.25952148 C19.7991967 2.71620072 12.72155818 2.92218974 5.51782227 2.97949219 C3.11537202 2.99792342 0.71330513 3.00000012 -1.68920898 2.99975586 C-3.22567064 3.00466625 -4.76212971 3.01049246 -6.29858398 3.01733398 C-7.01215057 3.01844681 -7.72571716 3.01955963 -8.46090698 3.02070618 C-11.80670819 3.0526538 -14.77235258 3.30479702 -17.99389648 4.18530273 C-20.74389648 3.74780273 -20.74389648 3.74780273 -22.99389648 3.18530273 C-22.99389648 3.84530273 -22.99389648 4.50530273 -22.99389648 5.18530273 C-23.69514648 5.14405273 -24.39639648 5.10280273 -25.11889648 5.06030273 C-28.42166767 5.20390148 -30.86964619 6.10383148 -33.99389648 7.18530273 C-35.40785081 7.48984674 -36.82484111 7.780489 -38.24389648 8.06030273 C-42.65572084 8.97694867 -46.5530543 10.59092636 -50.63452148 12.47827148 C-53.45165427 13.32247849 -55.19291789 12.96500777 -57.99389648 12.18530273 C-41.6517857 1.29056221 -18.93691752 -0.00200285 0 0 Z " fill="#4C4AC1" transform="translate(509.993896484375,292.814697265625)"/>
<path d="M0 0 C5.08561748 0.57288576 9.00185268 2.95919737 13.375 5.4375 C14.17083496 5.88343506 14.96666992 6.32937012 15.78662109 6.78881836 C21.52204881 10.04781813 27.00281946 13.58651765 32.44580078 17.30712891 C42.69443976 24.25911778 53.58337801 30.20359254 65 35 C65.92619141 35.39501709 66.85238281 35.79003418 67.80664062 36.19702148 C76.32717514 39.6661941 84.8161851 41.65192703 93.8125 43.3125 C95.1987789 43.57767435 96.58484847 43.84394545 97.97070312 44.11132812 C101.31191857 44.75163074 104.65479052 45.38096794 108 46 C107.505 46.99 107.505 46.99 107 48 C100.38420224 47.5871916 94.31590873 47.02109079 88 45 C86.515 44.7525 86.515 44.7525 85 44.5 C78.47587148 43.41264525 72.24636875 41.12461522 66 39 C66 38.34 66 37.68 66 37 C65.154375 36.896875 64.30875 36.79375 63.4375 36.6875 C59.58557299 35.9171146 56.55924969 34.63725486 53 33 C53 32.34 53 31.68 53 31 C52.29488281 30.89816406 51.58976563 30.79632813 50.86328125 30.69140625 C47.58940355 29.90085188 45.11415533 28.59476266 42.1875 26.9375 C41.21167969 26.38964844 40.23585938 25.84179688 39.23046875 25.27734375 C38.49441406 24.85582031 37.75835938 24.43429687 37 24 C37 23.34 37 22.68 37 22 C36.01 22 35.02 22 34 22 C34 21.34 34 20.68 34 20 C33.2575 19.9175 32.515 19.835 31.75 19.75 C28.43964342 18.84717548 27.35665351 17.43029893 25 15 C23.35448038 14.28272222 21.68577711 13.61674772 20 13 C17.1875 11.5 17.1875 11.5 15 10 C15 9.34 15 8.68 15 8 C13.6078125 7.5359375 13.6078125 7.5359375 12.1875 7.0625 C10.125 6.375 8.0625 5.6875 6 5 C6 4.34 6 3.68 6 3 C4.68 3 3.36 3 2 3 C2 2.34 2 1.68 2 1 C1.34 0.67 0.68 0.34 0 0 Z " fill="#3A38BA" transform="translate(581,308)"/>
<path d="M0 0 C0.66 0.66 1.32 1.32 2 2 C-5.16196946 7.31046032 -12.56741964 11.63467258 -20.5 15.6875 C-21.56347656 16.24244141 -22.62695312 16.79738281 -23.72265625 17.36914062 C-30.02679109 20.6217648 -36.35391485 23.52077448 -43 26 C-44.11632812 26.41765625 -45.23265625 26.8353125 -46.3828125 27.265625 C-47.74019531 27.75289062 -47.74019531 27.75289062 -49.125 28.25 C-50.05570313 28.58515625 -50.98640625 28.9203125 -51.9453125 29.265625 C-52.96238281 29.62914062 -52.96238281 29.62914062 -54 30 C-53.36320313 29.855625 -52.72640625 29.71125 -52.0703125 29.5625 C-39.82783096 27.22441334 -27.40974544 27.81936324 -15 28 C-15 28.33 -15 28.66 -15 29 C-15.82242188 29.06058594 -16.64484375 29.12117187 -17.4921875 29.18359375 C-29.29701106 30.06963709 -41.03981165 30.98061427 -52.6171875 33.58984375 C-55.88458751 34.15226506 -58.75844988 33.57203826 -62 33 C-61 30 -61 30 -58 28 C-55.88729657 27.37359198 -53.75967697 26.79686107 -51.625 26.25 C-42.67769476 23.77285351 -34.61413447 19.86484657 -26.375 15.625 C-23 14 -23 14 -20 14 C-19.67 13.34 -19.34 12.68 -19 12 C-17.22265625 10.9296875 -17.22265625 10.9296875 -15.0625 9.875 C-14.35222656 9.52179688 -13.64195312 9.16859375 -12.91015625 8.8046875 C-11 8 -11 8 -9 8 C-9 7.34 -9 6.68 -9 6 C-7.03125 4.4921875 -7.03125 4.4921875 -4.5 2.875 C-3.6646875 2.33617187 -2.829375 1.79734375 -1.96875 1.2421875 C-1.3190625 0.83226562 -0.669375 0.42234375 0 0 Z " fill="#3087A4" transform="translate(800,496)"/>
<path d="M0 0 C0.66 0.66 1.32 1.32 2 2 C1.566875 3.175625 1.566875 3.175625 1.125 4.375 C-0.02540763 8.08186905 -0.77285216 11.73505867 -1.4921875 15.54296875 C-2 18 -2 18 -3.125 21.75 C-4.00276181 25.01025815 -4.07453633 27.64586504 -4 31 C-4.24145752 31.86298706 -4.24145752 31.86298706 -4.48779297 32.7434082 C-5.18788132 35.82773452 -5.12991224 38.7564794 -5.1328125 41.91796875 C-5.13376923 42.57581863 -5.13472595 43.23366852 -5.13571167 43.91145325 C-5.13638993 45.29570614 -5.13456041 46.67996227 -5.13037109 48.06420898 C-5.124992 50.19066414 -5.13034112 52.31691054 -5.13671875 54.44335938 C-5.13605841 55.78906297 -5.13477816 57.13476643 -5.1328125 58.48046875 C-5.13168457 59.70660889 -5.13055664 60.93274902 -5.12939453 62.19604492 C-5.31993552 64.90465075 -5.31993552 64.90465075 -4 66 C-4 68 -4 70 -4 72 C-3.708776 73.67453799 -3.38929201 75.34550895 -3 77 C-3.99 77.495 -3.99 77.495 -5 78 C-5.31507274 76.47969758 -5.62690732 74.958724 -5.9375 73.4375 C-6.11152344 72.59058594 -6.28554688 71.74367188 -6.46484375 70.87109375 C-7.91448191 63.09383794 -8.21842339 55.5086954 -8.24023438 47.62402344 C-8.24984927 45.532784 -8.28089292 43.44256843 -8.3125 41.3515625 C-8.40701276 29.33532037 -6.54698584 18.1035699 -2.875 6.625 C-2.37613281 5.03558594 -2.37613281 5.03558594 -1.8671875 3.4140625 C-1 1 -1 1 0 0 Z " fill="#4244BC" transform="translate(354,412)"/>
<path d="M0 0 C4.56503839 3.51309476 7.75685503 6.98754081 10.875 11.8125 C11.51344849 12.79101929 11.51344849 12.79101929 12.16479492 13.78930664 C19.82297444 25.77334975 25.52299811 38.18757019 29 52 C29.26111572 52.98629395 29.52223145 53.97258789 29.79125977 54.98876953 C31.95045856 63.88214109 32.43816318 72.27158458 32.33618164 81.36279297 C32.31215902 83.65757277 32.31570328 85.95121648 32.32226562 88.24609375 C32.27624196 100.42393836 32.27624196 100.42393836 30 104 C30.01047363 103.16976318 30.02094727 102.33952637 30.03173828 101.48413086 C30.30122803 76.89745507 29.29011352 54.20778383 19.015625 31.3828125 C18.10814811 29.25373212 17.48304998 27.25773361 17 25 C16.34 25 15.68 25 15 25 C14.01 22.03 13.02 19.06 12 16 C11.34 16 10.68 16 10 16 C8 13 8 13 8 10 C7.34 10 6.68 10 6 10 C4.4921875 8.57421875 4.4921875 8.57421875 2.875 6.6875 C2.33617187 6.07261719 1.79734375 5.45773437 1.2421875 4.82421875 C0 3 0 3 0 0 Z " fill="#52B83F" transform="translate(871,564)"/>
<path d="M0 0 C1.15242188 0.04511719 2.30484375 0.09023438 3.4921875 0.13671875 C4.36101562 0.19472656 5.22984375 0.25273438 6.125 0.3125 C6.125 0.6425 6.125 0.9725 6.125 1.3125 C5.30515625 1.33828125 4.4853125 1.3640625 3.640625 1.390625 C2.02414062 1.47570312 2.02414062 1.47570312 0.375 1.5625 C-1.22601563 1.63210938 -1.22601563 1.63210938 -2.859375 1.703125 C-6.42500844 2.4236416 -7.50818078 3.64716305 -9.875 6.3125 C-10.535 6.3125 -11.195 6.3125 -11.875 6.3125 C-11.875 57.7925 -11.875 109.2725 -11.875 162.3125 C-12.205 162.3125 -12.535 162.3125 -12.875 162.3125 C-13.01512944 141.92869022 -13.12095103 121.5449781 -13.18587303 101.16078663 C-13.21681804 91.69613868 -13.25901074 82.23178991 -13.32763672 72.76733398 C-13.38741916 64.51859279 -13.42614446 56.27006825 -13.43953097 48.02111644 C-13.44735679 43.65277488 -13.46576188 39.28505316 -13.50938034 34.91691017 C-13.55010361 30.80539758 -13.56266997 26.69476014 -13.55364609 22.58306503 C-13.5552969 21.07415066 -13.56723467 19.56520706 -13.59023285 18.05646706 C-13.75460766 6.71691987 -13.75460766 6.71691987 -11.61403275 3.2991848 C-8.00688376 0.09446368 -4.67047354 -0.23828947 0 0 Z " fill="#F0F5F9" transform="translate(496.875,597.6875)"/>
<path d="M0 0 C0.66 0 1.32 0 2 0 C0.55724624 3.02680815 -1.10590604 5.89054778 -2.81811523 8.77172852 C-9.96791496 20.88625404 -13.18109521 31.55119617 -13.25 45.625 C-13.270625 46.65496094 -13.29125 47.68492187 -13.3125 48.74609375 C-13.34883913 55.96849582 -12.20044729 62.13969919 -10 69 C-9.59949889 70.3945012 -9.20300089 71.79016548 -8.8125 73.1875 C-8.544375 74.115625 -8.27625 75.04375 -8 76 C-9.485 76.495 -9.485 76.495 -11 77 C-12.3650145 72.34172235 -13.69286506 67.67475357 -15 63 C-15.35191406 61.79150391 -15.35191406 61.79150391 -15.7109375 60.55859375 C-19.14226036 47.45491877 -17.17450247 33.3391982 -12 21 C-11.26951393 19.16719198 -10.54037948 17.33384476 -9.8125 15.5 C-9.2091975 13.99965222 -8.60534154 12.49952625 -8 11 C-7.34 11 -6.68 11 -6 11 C-5.67 9.35 -5.34 7.7 -5 6 C-4.01 5.67 -3.02 5.34 -2 5 C-1.33820153 3.01954441 -1.33820153 3.01954441 -1 1 C-0.67 0.67 -0.34 0.34 0 0 Z " fill="#313DB4" transform="translate(525,442)"/>
<path d="M0 0 C-1.8125 1.0625 -1.8125 1.0625 -4 2 C-4.99 1.67 -5.98 1.34 -7 1 C-7.33 24.43 -7.66 47.86 -8 72 C-8.33 72 -8.66 72 -9 72 C-9.33 73.65 -9.66 75.3 -10 77 C-10.33 77 -10.66 77 -11 77 C-11.06945844 67.40344696 -11.12279 57.80698023 -11.15543652 48.21023083 C-11.17110387 43.75424011 -11.19236152 39.29842115 -11.22631836 34.8425293 C-11.25887388 30.5437024 -11.27684495 26.24504088 -11.28463173 21.94610023 C-11.29018211 20.30460315 -11.30102049 18.66311529 -11.31719017 17.02168846 C-11.33891431 14.7254404 -11.3419691 12.42987892 -11.34057617 10.13354492 C-11.34723801 8.82560471 -11.35389984 7.51766449 -11.36076355 6.17008972 C-11 3 -11 3 -9.60639954 1.07246399 C-6.61234994 -0.92642253 -3.49165265 -0.17172062 0 0 Z " fill="#3D3B95" transform="translate(340,924)"/>
<path d="M0 0 C0.99 0.99 0.99 0.99 2 2 C-0.17146356 8.39375383 -0.17146356 8.39375383 -3.5625 10.875 C-11.67989125 13.53160077 -20.13278681 13.0775911 -28.58203125 12.9375 C-31.57880369 12.99229812 -34.09340809 13.34710498 -37 14 C-38.58145574 14.16495316 -40.1650369 14.31059936 -41.75 14.4375 C-45.11647388 14.74671686 -48.28298585 15.24692906 -51.5625 16.0625 C-56.11845911 17.16081157 -60.32473576 17.14842109 -65 17 C-65 16.67 -65 16.34 -65 16 C-48.43837402 11.59398252 -31.51014686 9.77806254 -14.41259766 9.29052734 C-13.5004248 9.2642627 -12.58825195 9.23799805 -11.6484375 9.2109375 C-10.84583496 9.19337402 -10.04323242 9.17581055 -9.21630859 9.15771484 C-7.00746032 9.00053088 -5.09910763 8.70621497 -3 8 C-1.35127493 5.4835249 -0.62687294 2.92540704 0 0 Z " fill="#45A946" transform="translate(783,756)"/>
<path d="M0 0 C0.66 0 1.32 0 2 0 C3.19140625 1.6171875 3.19140625 1.6171875 4.5625 3.875 C13.9796794 18.28305865 25.78804076 26.83966061 42.0390625 32.02734375 C44.52361863 32.84351061 46.7097211 33.75431172 49 35 C39.25082654 34.3500551 28.15254926 32.15254926 21 25 C20.34 24.67 19.68 24.34 19 24 C19 23.34 19 22.68 19 22 C18.10474609 21.85884766 18.10474609 21.85884766 17.19140625 21.71484375 C14.50761579 20.83938269 13.65730321 19.76843426 11.9375 17.5625 C9.98931914 15.08722511 8.69367114 13.79578076 6 12 C5.67 11.01 5.34 10.02 5 9 C4.34 8.67 3.68 8.34 3 8 C3 7.01 3 6.02 3 5 C2.34 5 1.68 5 1 5 C1 4.01 1 3.02 1 2 C0.34 1.67 -0.32 1.34 -1 1 C-0.67 0.67 -0.34 0.34 0 0 Z " fill="#384FBC" transform="translate(518,522)"/>
<path d="M0 0 C0.99 0 1.98 0 3 0 C3.103125 0.99 3.20625 1.98 3.3125 3 C3.82129835 6.59793122 4.91350529 9.74243641 6.25 13.109375 C7.27881735 15.70285207 8.11774272 18.35322816 9 21 C9.61416639 22.83699095 10.24030393 24.67000082 10.875 26.5 C11.18179687 27.3971875 11.48859375 28.294375 11.8046875 29.21875 C13.19173205 32.44612164 15.02384269 35.09820766 17 38 C18.27608651 40.2772438 19.52645995 42.5690976 20.75 44.875 C21.67039062 46.60363281 21.67039062 46.60363281 22.609375 48.3671875 C23.06828125 49.23601563 23.5271875 50.10484375 24 51 C23.01 51 22.02 51 21 51 C0 16.19444444 0 16.19444444 0 0 Z " fill="#313CB5" transform="translate(350,494)"/>
<path d="M0 0 C0.83920486 0.00424484 1.67840973 0.00848969 2.54304504 0.01286316 C5.2230337 0.02965411 7.90226995 0.06730645 10.58203125 0.10546875 C12.39907768 0.12051508 14.2161359 0.13420357 16.03320312 0.14648438 C20.48726901 0.17955893 24.94077257 0.23134362 29.39453125 0.29296875 C29.39453125 0.62296875 29.39453125 0.95296875 29.39453125 1.29296875 C24.44453125 1.62296875 19.49453125 1.95296875 14.39453125 2.29296875 C14.39453125 2.62296875 14.39453125 2.95296875 14.39453125 3.29296875 C13.73332275 3.3180249 13.07211426 3.34308105 12.39086914 3.36889648 C9.4127082 3.48449977 6.43489205 3.60738629 3.45703125 3.73046875 C1.8956543 3.78944336 1.8956543 3.78944336 0.30273438 3.84960938 C-1.18129883 3.91245117 -1.18129883 3.91245117 -2.6953125 3.9765625 C-4.06997681 4.03154907 -4.06997681 4.03154907 -5.47241211 4.08764648 C-7.58754155 4.06300739 -7.58754155 4.06300739 -8.60546875 5.29296875 C-8.76261529 6.92553633 -8.85632289 8.56432213 -8.921875 10.203125 C-8.96376953 11.19248047 -9.00566406 12.18183594 -9.04882812 13.20117188 C-9.10780273 14.76254883 -9.10780273 14.76254883 -9.16796875 16.35546875 C-9.21115234 17.40025391 -9.25433594 18.44503906 -9.29882812 19.52148438 C-9.405281 22.11183759 -9.50729635 24.70229061 -9.60546875 27.29296875 C-9.93546875 27.29296875 -10.26546875 27.29296875 -10.60546875 27.29296875 C-10.86004145 23.35667743 -11.07976107 19.41920007 -11.29296875 15.48046875 C-11.36580078 14.36091797 -11.43863281 13.24136719 -11.51367188 12.08789062 C-11.56845703 11.01474609 -11.62324219 9.94160156 -11.6796875 8.8359375 C-11.73729248 7.8461792 -11.79489746 6.8564209 -11.85424805 5.83666992 C-11.60546875 3.29296875 -11.60546875 3.29296875 -10.32922363 1.65527344 C-7.34763451 -0.70111312 -3.63985972 -0.06909121 0 0 Z " fill="#28268D" transform="translate(622.60546875,923.70703125)"/>
<path d="M0 0 C16.91458132 3.77787603 32.82297348 11.6165132 46 23 C45.01 23.33 44.02 23.66 43 24 C42.505 22.515 42.505 22.515 42 21 C40.35544725 20.28050817 38.68076231 19.63028587 37 19 C33.96559042 17.39384686 30.98158684 15.70190796 28 14 C28 13.34 28 12.68 28 12 C27.07380859 11.74476563 27.07380859 11.74476563 26.12890625 11.484375 C20.95294197 10.00327716 16.12980664 8.24999951 11.25 5.984375 C7.59219935 4.38408722 3.80809441 3.18834152 0 2 C0 1.34 0 0.68 0 0 Z " fill="#4DB348" transform="translate(812,528)"/>
<path d="M0 0 C1.79244141 0.01353516 1.79244141 0.01353516 3.62109375 0.02734375 C6.53927834 0.05068923 9.45702776 0.08343344 12.375 0.125 C12.375 0.455 12.375 0.785 12.375 1.125 C11.55257812 1.18558594 10.73015625 1.24617187 9.8828125 1.30859375 C-1.92201106 2.19463709 -13.66481165 3.10561427 -25.2421875 5.71484375 C-28.50958751 6.27726506 -31.38344988 5.69703826 -34.625 5.125 C-32.30853741 2.80853741 -31.76226838 2.8490906 -28.625 2.625 C-25.37524415 2.35514038 -22.33248977 1.85933387 -19.1640625 1.1015625 C-12.77976625 -0.20846193 -6.49214485 -0.09408906 0 0 Z " fill="#4999AA" transform="translate(772.625,523.875)"/>
<path d="M0 0 C-1.65 1.32 -3.3 2.64 -5 4 C3.25 4.33 11.5 4.66 20 5 C20 5.33 20 5.66 20 6 C19.1435791 6.01981934 18.2871582 6.03963867 17.40478516 6.06005859 C14.18027658 6.13887508 10.95609679 6.22558633 7.73193359 6.31738281 C6.34529587 6.35530245 4.9585721 6.39021453 3.57177734 6.421875 C-3.75453784 6.59114726 -10.83907746 6.83742943 -17.97119141 8.68212891 C-20.26730723 9.04188135 -21.80428239 8.70468367 -24 8 C-21.11151711 6.78902092 -18.22128593 5.58258303 -15.328125 4.3828125 C-13.23071782 3.51135459 -11.13647525 2.63220242 -9.046875 1.7421875 C-8.16515625 1.37351562 -7.2834375 1.00484375 -6.375 0.625 C-5.57835937 0.28726563 -4.78171875 -0.05046875 -3.9609375 -0.3984375 C-2 -1 -2 -1 0 0 Z " fill="#D1E5E5" transform="translate(769,518)"/>
<path d="M0 0 C1.9375 0.75 1.9375 0.75 4 2 C4.33333333 3.33333333 4.66666667 4.66666667 5 6 C6.32467746 6.6837045 7.65863633 7.34964186 9 8 C9.66666667 9.33333333 10.33333333 10.66666667 11 12 C11.721875 12.5775 12.44375 13.155 13.1875 13.75 C15.54671355 15.63737084 17.2494931 17.34875604 19.1875 19.625 C26.22398738 28.37474494 26.22398738 28.37474494 35 35 C34.67 35.99 34.34 36.98 34 38 C30.43697926 34.48702169 26.88104497 30.96706361 23.33105469 27.44091797 C22.12652254 26.24634328 20.92018961 25.05358119 19.71191406 23.86279297 C4.79209938 9.15329076 4.79209938 9.15329076 0 2 C0 1.34 0 0.68 0 0 Z " fill="#2B43B1" transform="translate(380,556)"/>
<path d="M0 0 C0 0.66 0 1.32 0 2 C-4.0018707 3.21796065 -7.95205065 4.21646503 -12.0625 5 C-14.87512117 5.53876755 -17.40470975 6.13760132 -20.125 7.0625 C-23.76762972 8.25031404 -27.18787511 8.57643057 -31 9 C-32.67056149 9.31323028 -34.33958925 9.63678515 -36 10 C-35.67 9.01 -35.34 8.02 -35 7 C-33.51113281 6.74476563 -33.51113281 6.74476563 -31.9921875 6.484375 C-23.80064859 5.03678045 -15.93489616 3.26277001 -7.98828125 0.76953125 C-5.17338303 0.04464896 -2.88786363 -0.15537671 0 0 Z " fill="#4343BE" transform="translate(760,345)"/>
<path d="M0 0 C1.15242188 0.04511719 2.30484375 0.09023438 3.4921875 0.13671875 C4.36101562 0.19472656 5.22984375 0.25273438 6.125 0.3125 C6.125 0.6425 6.125 0.9725 6.125 1.3125 C5.30515625 1.33828125 4.4853125 1.3640625 3.640625 1.390625 C2.02414062 1.47570312 2.02414062 1.47570312 0.375 1.5625 C-1.22601563 1.63210938 -1.22601563 1.63210938 -2.859375 1.703125 C-6.42500844 2.4236416 -7.50818078 3.64716305 -9.875 6.3125 C-10.535 6.3125 -11.195 6.3125 -11.875 6.3125 C-11.875 24.4625 -11.875 42.6125 -11.875 61.3125 C-12.205 61.3125 -12.535 61.3125 -12.875 61.3125 C-13.02712346 53.4290438 -13.13220547 45.54596592 -13.20458984 37.66137695 C-13.23137723 34.97898556 -13.27312152 32.29744627 -13.32763672 29.61547852 C-13.40041572 25.76033184 -13.43445182 21.90648948 -13.4609375 18.05078125 C-13.50738907 16.25209343 -13.50738907 16.25209343 -13.55477905 14.41706848 C-13.5580465 6.33627255 -13.5580465 6.33627255 -11.61990356 3.43132019 C-7.93216555 0.17355377 -4.78568427 -0.24416756 0 0 Z " fill="#F0F3F9" transform="translate(496.875,597.6875)"/>
<path d="M0 0 C5.71084339 -0.049623 11.42155985 -0.08582503 17.13256836 -0.10986328 C19.07334582 -0.1198898 21.0141083 -0.13351443 22.95483398 -0.15087891 C25.75247916 -0.17527489 28.54992371 -0.18651681 31.34765625 -0.1953125 C32.2083522 -0.20563507 33.06904816 -0.21595764 33.95582581 -0.22659302 C39.03179193 -0.22752775 43.18941137 0.35957509 48 2 C45.81231272 3.33222569 44.54829634 4.06517014 41.96240234 3.7578125 C41.21941895 3.54898437 40.47643555 3.34015625 39.7109375 3.125 C32.71823041 1.52373423 25.75539766 1.85543003 18.625 2 C15.95034331 2.05337875 13.27669233 2.09305815 10.6015625 2.125 C9.42932129 2.14820313 8.25708008 2.17140625 7.04931641 2.1953125 C4.09553536 2.00611916 2.47984382 1.54999773 0 0 Z " fill="#3532BA" transform="translate(497,294)"/>
<path d="M0 0 C0.03738281 1.24394531 0.07476562 2.48789062 0.11328125 3.76953125 C0.45047376 12.90956134 1.02672592 21.27738472 4 30 C4.40312874 31.39374386 4.79989655 32.78935899 5.1875 34.1875 C5.455625 35.115625 5.72375 36.04375 6 37 C4.515 37.495 4.515 37.495 3 38 C1.6349855 33.34172235 0.30713494 28.67475357 -1 24 C-1.35191406 22.79150391 -1.35191406 22.79150391 -1.7109375 21.55859375 C-3.48497743 14.78381806 -3.17814812 7.95767372 -3 1 C-1 0 -1 0 0 0 Z " fill="#4351BC" transform="translate(511,481)"/>
<path d="M0 0 C0.76171875 1.64453125 0.76171875 1.64453125 1 4 C-5.48450615 14.49366218 -15.91521732 24.08038874 -28 27 C-28 26.34 -28 25.68 -28 25 C-26.22809504 23.89068556 -24.40438604 22.86377778 -22.5625 21.875 C-12.6446808 16.21600905 -6.12170145 9.60575661 0 0 Z " fill="#2C59B1" transform="translate(633,525)"/>
<path d="M0 0 C3 1 3 1 5.01953125 3.51953125 C9.36118054 7.13283046 13.20387784 6.70608855 18.6875 6.6875 C20.58732865 6.70404238 22.4871104 6.72839229 24.38671875 6.76171875 C25.64295044 6.7611145 25.64295044 6.7611145 26.92456055 6.76049805 C29 7 29 7 31 9 C25.27186972 11.86406514 14.03187214 10.6889242 8 9 C5.08141033 7.27277759 2.35170375 5.45554521 0 3 C0 2.01 0 1.02 0 0 Z " fill="#2678A6" transform="translate(482,759)"/>
<path d="M0 0 C0.66 0.66 1.32 1.32 2 2 C-23.42070015 17.60238737 -23.42070015 17.60238737 -32 21 C-32.66 20.67 -33.32 20.34 -34 20 C-31.6975762 18.06596401 -29.67756188 16.86585281 -26.8828125 15.703125 C-22.50639686 13.86693446 -18.50436377 11.49538828 -14.4375 9.0625 C-13.34405273 8.41764648 -13.34405273 8.41764648 -12.22851562 7.75976562 C-8.06550384 5.2904364 -4.00085786 2.72412281 0 0 Z " fill="#53B543" transform="translate(826,779)"/>
<path d="M0 0 C0.99 0.33 1.98 0.66 3 1 C1.67548828 1.99966797 1.67548828 1.99966797 0.32421875 3.01953125 C-7.74110142 9.18533647 -14.98362254 15.66253408 -22 23 C-23.32994782 24.33671027 -24.66205044 25.67129894 -26 27 C-22.82644889 17.58063021 -14.11788997 10.80256279 -6.5625 4.75 C-5.95954102 4.25999512 -5.35658203 3.76999023 -4.73535156 3.26513672 C-3.00390625 1.921875 -3.00390625 1.921875 0 0 Z " fill="#379174" transform="translate(668,794)"/>
<path d="M0 0 C11.00496724 1.00963002 20.93567796 5.74355344 31 10 C30.67 10.66 30.34 11.32 30 12 C26.31127768 10.83514032 22.75309525 9.49076369 19.1875 8 C15.15504766 6.36029799 11.24602503 5.28378511 6.984375 4.4375 C4.5288795 3.89613091 2.28843584 3.03348715 0 2 C0 1.34 0 0.68 0 0 Z " fill="#298992" transform="translate(546,772)"/>
<path d="M0 0 C0.66 0.33 1.32 0.66 2 1 C-1.19997523 4.2583198 -4.41140421 7.50511746 -7.625 10.75 C-8.52863281 11.67039062 -9.43226563 12.59078125 -10.36328125 13.5390625 C-11.24628906 14.42851563 -12.12929688 15.31796875 -13.0390625 16.234375 C-13.84553223 17.05131836 -14.65200195 17.86826172 -15.48291016 18.70996094 C-18.19062521 21.17343011 -20.91224278 23.04612059 -24 25 C-22.43306739 21.03227006 -19.85724066 18.84621 -16.6875 16.0625 C-13.00311725 12.81039135 -9.44614872 9.50426252 -6 6 C-4 4 -2 2 0 0 Z " fill="#5CC347" transform="translate(864,746)"/>
<path d="M0 0 C2.20342678 4.12551597 3.12369959 8.21077149 4.125 12.75 C4.39763672 13.91015625 4.39763672 13.91015625 4.67578125 15.09375 C5.81015382 20.17710377 6.1783141 24.79322821 6 30 C5.34 30 4.68 30 4 30 C3.87882813 29.01 3.75765625 28.02 3.6328125 27 C2.65456363 18.67651682 2.65456363 18.67651682 0.875 10.5 C-0.06023579 6.75905685 -0.15937153 3.82491673 0 0 Z " fill="#61BD4D" transform="translate(897,608)"/>
<path d="M0 0 C-2.99638416 1.66465786 -5.64542337 2.36947752 -9 3 C-11.19412145 3.64453996 -13.381435 4.31257279 -15.5625 5 C-19.02596412 6.08908929 -22.46447701 7.17014619 -26 8 C-26 7.01 -26 6.02 -26 5 C-8.85106383 -0.95744681 -8.85106383 -0.95744681 0 0 Z " fill="#3EA155" transform="translate(725,773)"/>
<path d="M0 0 C0.66 0 1.32 0 2 0 C-0.15775996 7.55215986 -3.76625068 12.42010254 -10 17 C-13.5725759 18.87134928 -15.19731205 19.10711168 -19 18 C-18.27554688 17.64808594 -17.55109375 17.29617188 -16.8046875 16.93359375 C-9.45717354 13.18146329 -4.17548273 9.64762219 -0.625 2.0625 C-0.315625 1.0415625 -0.315625 1.0415625 0 0 Z " fill="#55B74A" transform="translate(863,634)"/>
<path d="M0 0 C0.66 0 1.32 0 2 0 C1.42063175 6.33638191 -0.06662061 11.97068452 -2.0625 18 C-2.34416016 18.87011719 -2.62582031 19.74023438 -2.91601562 20.63671875 C-3.60432426 22.75997589 -4.29906661 24.88088417 -5 27 C-5.66 26.67 -6.32 26.34 -7 26 C-7 25.01 -7 24.02 -7 23 C-6.34 23 -5.68 23 -5 23 C-5.0309375 21.3603125 -5.0309375 21.3603125 -5.0625 19.6875 C-5 16 -5 16 -4 13 C-3.34 13 -2.68 13 -2 13 C-2.33 12.01 -2.66 11.02 -3 10 C-2.44140625 7.7734375 -2.44140625 7.7734375 -1.5625 5.375 C-0.46844331 2.75255889 -0.46844331 2.75255889 0 0 Z " fill="#2E48B9" transform="translate(906,325)"/>
<path d="M0 0 C1.64062363 0.00502563 3.28124876 0.00958665 4.921875 0.01367188 C8.90628742 0.02459195 12.8906269 0.04179782 16.875 0.0625 C16.875 0.3925 16.875 0.7225 16.875 1.0625 C15.89104248 1.08755615 14.90708496 1.1126123 13.89331055 1.13842773 C10.24229943 1.2326082 6.59147384 1.3328029 2.94067383 1.43481445 C1.36063985 1.47812305 -0.21943969 1.51980106 -1.79956055 1.55981445 C-4.07094048 1.61761583 -6.34209189 1.6812816 -8.61328125 1.74609375 C-9.31963211 1.76280624 -10.02598297 1.77951874 -10.7537384 1.79673767 C-13.7914824 1.8884747 -16.22123058 2.09457686 -19.125 3.0625 C-21.18645107 3.131491 -23.25001401 3.14717727 -25.3125 3.125 C-26.94251953 3.11146484 -26.94251953 3.11146484 -28.60546875 3.09765625 C-29.43691406 3.08605469 -30.26835937 3.07445312 -31.125 3.0625 C-23.03634832 -2.32993445 -9.4548623 -0.05061694 0 0 Z " fill="#4747BD" transform="translate(513.125,292.9375)"/>
<path d="M0 0 C0.66 0.66 1.32 1.32 2 2 C-0.16953642 8.38807947 -0.16953642 8.38807947 -3.375 10.75 C-8.62380397 12.5599324 -13.39194644 12.06901789 -18.875 11.6875 C-19.94492187 11.62626953 -21.01484375 11.56503906 -22.1171875 11.50195312 C-24.74604874 11.34938529 -27.37301439 11.18164311 -30 11 C-30 10.67 -30 10.34 -30 10 C-29.32420898 9.97494385 -28.64841797 9.9498877 -27.95214844 9.92407227 C-24.8845832 9.80789258 -21.81730842 9.68526563 -18.75 9.5625 C-17.68652344 9.52318359 -16.62304688 9.48386719 -15.52734375 9.44335938 C-13.99013672 9.38051758 -13.99013672 9.38051758 -12.421875 9.31640625 C-11.47924805 9.27974854 -10.53662109 9.24309082 -9.56542969 9.20532227 C-7.23399514 9.01872763 -5.21125338 8.75626857 -3 8 C-1.35127493 5.4835249 -0.62687294 2.92540704 0 0 Z " fill="#60B759" transform="translate(783,756)"/>
<path d="M0 0 C-5.71219823 3.01331558 -11.35398051 5.28807847 -17.5 7.25 C-18.32242188 7.518125 -19.14484375 7.78625 -19.9921875 8.0625 C-21.992981 8.71392114 -23.99623782 9.35776853 -26 10 C-26 9.34 -26 8.68 -26 8 C-21.81849983 5.21233322 -17.37088873 4.37578726 -12.54296875 3.09765625 C-8.96385044 2.1033597 -8.96385044 2.1033597 -5.73828125 0.30859375 C-3 -1 -3 -1 0 0 Z " fill="#227A9E" transform="translate(765,518)"/>
<path d="M0 0 C0.99 0 1.98 0 3 0 C1.90109517 6.91663627 0.43430815 13.42736799 -2 20 C-2.66 19.67 -3.32 19.34 -4 19 C-3.58647671 16.03641641 -3.16498492 13.3918392 -2 10.625 C-0.6534484 7.09030205 -0.38243937 3.76065384 0 0 Z " fill="#4048BC" transform="translate(911,305)"/>
<path d="M0 0 C4.39305889 1.45091853 8.76403544 2.95529549 13.125 4.5 C14.32382812 4.9228125 15.52265625 5.345625 16.7578125 5.78125 C19.28405474 6.73087359 21.62816966 7.7255837 24 9 C15.60792315 8.44052821 7.08908187 6.72605458 0 2 C0 1.34 0 0.68 0 0 Z " fill="#2146AE" transform="translate(543,548)"/>
<path d="M0 0 C-0.66 0.66 -1.32 1.32 -2 2 C-4.625 1.625 -4.625 1.625 -7 1 C-7 1.66 -7 2.32 -7 3 C-7.70125 2.95875 -8.4025 2.9175 -9.125 2.875 C-12.40486662 3.0176029 -14.91421395 3.90711744 -18 5 C-19.66088045 5.36106097 -21.32618981 5.70462173 -23 6 C-23.33 5.34 -23.66 4.68 -24 4 C-15.82939332 0.64421511 -8.78365645 -0.15685101 0 0 Z " fill="#3937BC" transform="translate(494,295)"/>
<path d="M0 0 C6.57315478 -0.36517527 11.79485526 0.86380263 18 3 C18 3.99 18 4.98 18 6 C15.93636888 5.54678672 13.87413493 5.08720894 11.8125 4.625 C10.66394531 4.36976563 9.51539063 4.11453125 8.33203125 3.8515625 C5.41192652 3.10527548 2.76046611 2.19568212 0 1 C0 0.67 0 0.34 0 0 Z " fill="#67B990" transform="translate(792,524)"/>
<path d="M0 0 C6.93302093 -0.22731216 13.2168636 0.57997892 20 2 C19.01 2.495 19.01 2.495 18 3 C17.67 3.66 17.34 4.32 17 5 C12.91409515 4.25710821 8.9908772 3.14025063 5 2 C3.33753959 1.64628502 1.67225729 1.30404678 0 1 C0 0.67 0 0.34 0 0 Z " fill="#2F89A5" transform="translate(525,769)"/>
<path d="M0 0 C0.66 0.66 1.32 1.32 2 2 C1.71125 2.78375 1.4225 3.5675 1.125 4.375 C-0.26760284 8.8622758 -1.14271981 13.385279 -2 18 C-2.99 18 -3.98 18 -5 18 C-3.41463415 3.41463415 -3.41463415 3.41463415 0 0 Z " fill="#3B3CB7" transform="translate(354,412)"/>
<path d="M0 0 C0.66 0.33 1.32 0.66 2 1 C-0.54936304 5.15451755 -2.71301116 8.57691935 -7 11 C-10.36152199 11.32014495 -13.63499295 11.23522379 -17 11 C-17 10.67 -17 10.34 -17 10 C-12.545 9.505 -12.545 9.505 -8 9 C-8.33 8.34 -8.66 7.68 -9 7 C-8.43410156 6.66226562 -7.86820313 6.32453125 -7.28515625 5.9765625 C-6.55167969 5.53054688 -5.81820312 5.08453125 -5.0625 4.625 C-4.33160156 4.18414062 -3.60070312 3.74328125 -2.84765625 3.2890625 C-0.86227728 2.1226016 -0.86227728 2.1226016 0 0 Z " fill="#5383C4" transform="translate(831,281)"/>
<path d="M0 0 C0.82693359 0.00451172 1.65386719 0.00902344 2.50585938 0.01367188 C4.52477146 0.02534189 6.54364574 0.04327282 8.5625 0.0625 C8.5625 0.3925 8.5625 0.7225 8.5625 1.0625 C7.74007812 1.12308594 6.91765625 1.18367187 6.0703125 1.24609375 C4.95398438 1.32988281 3.83765625 1.41367187 2.6875 1.5 C1.50800781 1.58765625 0.32851563 1.6753125 -0.88671875 1.765625 C-4.77850241 2.09101065 -8.64229521 2.54858511 -12.51171875 3.07421875 C-14.4375 3.0625 -14.4375 3.0625 -16.4375 1.0625 C-10.91041389 0.12029874 -5.59991648 -0.05866149 0 0 Z " fill="#31918A" transform="translate(776.4375,523.9375)"/>
<path d="M0 0 C0.99 0.33 1.98 0.66 3 1 C-2.88902977 5.11725863 -10.59857561 10 -18 10 C-18 9.34 -18 8.68 -18 8 C-17.35933594 7.74605469 -16.71867187 7.49210937 -16.05859375 7.23046875 C-7.48146744 4.50144953 -7.48146744 4.50144953 0 0 Z " fill="#3D3CB7" transform="translate(428,415)"/>
<path d="M0 0 C0.66 0.33 1.32 0.66 2 1 C1.360625 1.103125 0.72125 1.20625 0.0625 1.3125 C-0.618125 1.539375 -1.29875 1.76625 -2 2 C-2.33 2.99 -2.66 3.98 -3 5 C-5.06640625 5.94921875 -5.06640625 5.94921875 -7.5625 6.6875 C-8.38878906 6.93886719 -9.21507812 7.19023437 -10.06640625 7.44921875 C-11.02353516 7.72185547 -11.02353516 7.72185547 -12 8 C-12.66 7.34 -13.32 6.68 -14 6 C-11.71220962 4.96959833 -9.42048864 3.95047982 -7.125 2.9375 C-6.47402344 2.64294922 -5.82304688 2.34839844 -5.15234375 2.04492188 C-3.45989459 1.30338487 -1.73131425 0.64560999 0 0 Z " fill="#5655C3" transform="translate(796,329)"/>
<path d="M0 0 C0 4.13781054 -1.71509607 5.20919996 -4.5 8.1875 C-5.3353125 9.08855469 -6.170625 9.98960937 -7.03125 10.91796875 C-7.6809375 11.60503906 -8.330625 12.29210937 -9 13 C-9.33 12.01 -9.66 11.02 -10 10 C-8.7121669 8.51749445 -7.41960936 7.03909182 -6.125 5.5625 C-5.40570313 4.73878906 -4.68640625 3.91507812 -3.9453125 3.06640625 C-2 1 -2 1 0 0 Z " fill="#3835B6" transform="translate(392,347)"/>
<path d="M0 0 C4.31931387 0.61611835 8.25208775 1.64238578 12.375 3.0625 C13.43460938 3.42472656 14.49421875 3.78695313 15.5859375 4.16015625 C16.38257813 4.43730469 17.17921875 4.71445312 18 5 C17.67 5.66 17.34 6.32 17 7 C6.44191344 5.07289294 6.44191344 5.07289294 2 3 C2 2.34 2 1.68 2 1 C1.34 0.67 0.68 0.34 0 0 Z " fill="#3433B7" transform="translate(645,344)"/>
<path d="M0 0 C0.99 0.33 1.98 0.66 3 1 C2.566875 1.7425 2.13375 2.485 1.6875 3.25 C-0.80883146 8.17133916 -1.78031196 13.65413327 -3 19 C-3.33 19 -3.66 19 -4 19 C-4.53699151 11.88486245 -2.69707634 6.55004254 0 0 Z " fill="#4249BE" transform="translate(448,444)"/>
<path d="M0 0 C1.9375 0.75 1.9375 0.75 4 2 C4.33333333 3.33333333 4.66666667 4.66666667 5 6 C5.9590625 6.433125 5.9590625 6.433125 6.9375 6.875 C9 8 9 8 10.25 11.125 C10.4975 12.07375 10.745 13.0225 11 14 C7.11807874 10.23225289 3.20468119 6.37202211 0 2 C0 1.34 0 0.68 0 0 Z " fill="#3549B8" transform="translate(380,556)"/>
<path d="M0 0 C12.66970387 3.07517084 12.66970387 3.07517084 18 5 C18 5.33 18 5.66 18 6 C11.56318772 5.48914188 6.04057576 4.27057103 0 2 C0 1.34 0 0.68 0 0 Z " fill="#5DBB7A" transform="translate(812,528)"/>
<path d="M0 0 C0.66 0.33 1.32 0.66 2 1 C2 1.99 2 2.98 2 4 C0.41913952 4.36504603 -1.16483907 4.71660506 -2.75 5.0625 C-3.63171875 5.25972656 -4.5134375 5.45695313 -5.421875 5.66015625 C-7.98679028 5.99825872 -9.57091639 5.81158635 -12 5 C-10.04578965 4.13644222 -8.08648653 3.28440066 -6.125 2.4375 C-5.03445313 1.96183594 -3.94390625 1.48617187 -2.8203125 0.99609375 C-1.88960937 0.66738281 -0.95890625 0.33867188 0 0 Z " fill="#C3DDE5" transform="translate(757,521)"/>
<path d="M0 0 C3.9226818 3.24635735 5.96609666 7.0527242 7 12 C6.57421875 14.25 6.57421875 14.25 6 16 C4.08614468 13.12921701 3.03567048 10.66588344 1.875 7.4375 C1.52179688 6.46683594 1.16859375 5.49617188 0.8046875 4.49609375 C0 2 0 2 0 0 Z " fill="#464ABC" transform="translate(433,439)"/>
<path d="M0 0 C1.74216797 0.05414062 1.74216797 0.05414062 3.51953125 0.109375 C4.39996094 0.15578125 5.28039062 0.2021875 6.1875 0.25 C6.1875 0.58 6.1875 0.91 6.1875 1.25 C5.36765625 1.27578125 4.5478125 1.3015625 3.703125 1.328125 C2.08664062 1.41320312 2.08664062 1.41320312 0.4375 1.5 C-1.16351563 1.56960938 -1.16351563 1.56960938 -2.796875 1.640625 C-6.36250844 2.3611416 -7.44568078 3.58466305 -9.8125 6.25 C-10.4725 6.25 -11.1325 6.25 -11.8125 6.25 C-12.1425 7.24 -12.4725 8.23 -12.8125 9.25 C-12.53367762 5.90413144 -12.07806204 4.51946737 -9.6875 2.09375 C-6.16309747 -0.16646466 -4.14410971 -0.16743878 0 0 Z " fill="#BCC7E8" transform="translate(496.8125,597.75)"/>
<path d="M0 0 C-1.4317521 5.01113235 -3.98445693 6.94469549 -8 10 C-8.33 9.01 -8.66 8.02 -9 7 C-7.88121617 5.82737096 -6.75476949 4.66204862 -5.625 3.5 C-4.68527344 2.52546875 -4.68527344 2.52546875 -3.7265625 1.53125 C-2 0 -2 0 0 0 Z " fill="#3D45BD" transform="translate(561,466)"/>
<path d="M0 0 C-1.62017842 1.33918806 -3.24629343 2.6711969 -4.875 4 C-6.23238281 5.11375 -6.23238281 5.11375 -7.6171875 6.25 C-10 8 -10 8 -12 8 C-10.67667681 4.03003043 -7.9910601 2.23963605 -4.75390625 -0.14453125 C-3 -1 -3 -1 0 0 Z " fill="#2E8E64" transform="translate(671,795)"/>
<path d="M0 0 C2.76223278 2.76223278 2.57856291 5.20706617 3 9 C2.01 9 1.02 9 0 9 C-0.99 9.66 -1.98 10.32 -3 11 C-2.01 7.37 -1.02 3.74 0 0 Z " fill="#D7D7F0" transform="translate(442,390)"/>
<path d="M0 0 C2.14898232 0.7830784 4.29412095 1.57671243 6.4375 2.375 C7.63246094 2.81585938 8.82742188 3.25671875 10.05859375 3.7109375 C13 5 13 5 14 7 C11 8 11 8 8 6.625 C7.01 6.08875 6.02 5.5525 5 5 C4.01 4.67 3.02 4.34 2 4 C2 3.34 2 2.68 2 2 C1.34 2 0.68 2 0 2 C0 1.34 0 0.68 0 0 Z " fill="#4242BD" transform="translate(632,337)"/>
<path d="M0 0 C3.7602985 0.58107632 6.53035032 1.65199496 9.8125 3.5625 C10.60269531 4.01753906 11.39289062 4.47257813 12.20703125 4.94140625 C12.79871094 5.29074219 13.39039063 5.64007812 14 6 C13.01 6.495 13.01 6.495 12 7 C9.61979068 6.05689819 7.32214518 5.06639285 5 4 C3.3357865 3.32723284 1.67013418 2.65793165 0 2 C0 1.34 0 0.68 0 0 Z " fill="#348F90" transform="translate(577,783)"/>
<path d="M0 0 C0.66 0.66 1.32 1.32 2 2 C0.21190303 3.17213045 -1.58059125 4.33755526 -3.375 5.5 C-4.37273438 6.1496875 -5.37046875 6.799375 -6.3984375 7.46875 C-9 9 -9 9 -11 9 C-11 8.34 -11 7.68 -11 7 C-9.21601386 5.71993203 -7.37146094 4.52339649 -5.5 3.375 C-3.96859375 2.42753906 -3.96859375 2.42753906 -2.40625 1.4609375 C-1.6121875 0.97882812 -0.818125 0.49671875 0 0 Z " fill="#5CBE4E" transform="translate(826,779)"/>
<path d="M0 0 C2 3 2 3 1.5390625 5.69921875 C1.23742187 6.68535156 0.93578125 7.67148437 0.625 8.6875 C0.32851563 9.68136719 0.03203125 10.67523438 -0.2734375 11.69921875 C-0.51320313 12.45847656 -0.75296875 13.21773438 -1 14 C-1.66 13.67 -2.32 13.34 -3 13 C-3 12.01 -3 11.02 -3 10 C-2.34 10 -1.68 10 -1 10 C-1.0309375 8.3603125 -1.0309375 8.3603125 -1.0625 6.6875 C-1 3 -1 3 0 0 Z " fill="#395ABE" transform="translate(902,338)"/>
<path d="M0 0 C0 0.33 0 0.66 0 1 C-7.12950371 2.90120099 -13.63740707 3.22424141 -21 3 C-15.06281054 -0.9581263 -6.95604187 -0.12881559 0 0 Z " fill="#6E6ECD" transform="translate(503,293)"/>
<path d="M0 0 C2.01822917 0.06510417 4.03645833 0.13020833 6.0546875 0.1953125 C4.2421875 1.2578125 4.2421875 1.2578125 2.0546875 2.1953125 C1.0646875 1.8653125 0.0746875 1.5353125 -0.9453125 1.1953125 C-1.2753125 5.1553125 -1.6053125 9.1153125 -1.9453125 13.1953125 C-2.2753125 13.1953125 -2.6053125 13.1953125 -2.9453125 13.1953125 C-3.16682799 11.40522783 -3.37213463 9.61313088 -3.5703125 7.8203125 C-3.68632812 6.82257812 -3.80234375 5.82484375 -3.921875 4.796875 C-3.92960937 3.93835938 -3.93734375 3.07984375 -3.9453125 2.1953125 C-1.9453125 0.1953125 -1.9453125 0.1953125 0 0 Z " fill="#26258C" transform="translate(333.9453125,923.8046875)"/>
<path d="M0 0 C0.66 0 1.32 0 2 0 C0.68139111 4.61513112 -1.21355437 8.09897612 -4 12 C-4.99 11.67 -5.98 11.34 -7 11 C-6.21625 10.113125 -5.4325 9.22625 -4.625 8.3125 C-2.42843009 5.69279481 -1.06209659 3.28284399 0 0 Z " fill="#5CBC50" transform="translate(863,634)"/>
<path d="M0 0 C-0.33 0.99 -0.66 1.98 -1 3 C-5.455 3.495 -5.455 3.495 -10 4 C-9.67 3.01 -9.34 2.02 -9 1 C-5.846632 0.29925156 -3.27275026 0 0 0 Z " fill="#4445BE" transform="translate(734,351)"/>
<path d="M0 0 C0 0.66 0 1.32 0 2 C-7.28571429 5.42857143 -7.28571429 5.42857143 -12 5 C-7.86095268 1.43582036 -5.4268417 0 0 0 Z " fill="#3C3CBD" transform="translate(784,336)"/>
<path d="M0 0 C1.485 0.99 1.485 0.99 3 2 C2.34 3.65 1.68 5.3 1 7 C1.99 7.66 2.98 8.32 4 9 C4 9.66 4 10.32 4 11 C3.01 11 2.02 11 1 11 C-1.30441554 7.54337669 -1.25860135 6.05142119 -1 2 C-0.67 1.34 -0.34 0.68 0 0 Z " fill="#1F1E87" transform="translate(389,926)"/>
<path d="M0 0 C0.66 0.33 1.32 0.66 2 1 C-0.475 5.455 -0.475 5.455 -3 10 C-4.65 9.67 -6.3 9.34 -8 9 C-7.4225 8.814375 -6.845 8.62875 -6.25 8.4375 C-2.89572157 6.29448878 -1.82092004 3.51177437 0 0 Z " fill="#2C8675" transform="translate(639,871)"/>
<path d="M0 0 C0.33 0.66 0.66 1.32 1 2 C-0.11962199 3.64949657 -1.24586845 5.29449838 -2.375 6.9375 C-3.00148438 7.85402344 -3.62796875 8.77054688 -4.2734375 9.71484375 C-6 12 -6 12 -8 13 C-6.40956621 7.91061189 -3.2553049 4.12543357 0 0 Z " fill="#5DC346" transform="translate(880,724)"/>
<path d="M0 0 C4.66154042 1.49835228 5.86610751 4.88463591 8 9 C7.01 9 6.02 9 5 9 C3.61328125 7.5390625 3.61328125 7.5390625 2.3125 5.625 C1.65701172 4.68527344 1.65701172 4.68527344 0.98828125 3.7265625 C0 2 0 2 0 0 Z " fill="#3243B6" transform="translate(373,546)"/>
<path d="M0 0 C0.66 0.33 1.32 0.66 2 1 C0.92807816 2.3218362 -0.15802695 3.63217927 -1.25 4.9375 C-1.85328125 5.66839844 -2.4565625 6.39929688 -3.078125 7.15234375 C-5.10741134 9.10326334 -6.254407 9.61731779 -9 10 C-8.06409496 8.8944811 -7.12620142 7.79064547 -6.1875 6.6875 C-5.66542969 6.07261719 -5.14335937 5.45773437 -4.60546875 4.82421875 C-3.12827531 3.14575321 -1.59960869 1.56117966 0 0 Z " fill="#4F4DC0" transform="translate(399,338)"/>
<path d="M0 0 C0.66 0 1.32 0 2 0 C0.34908222 4.29238623 -2.73754566 6.8793915 -6 10 C-6.66 9.67 -7.32 9.34 -8 9 C-6.71520959 7.49410612 -5.42195918 5.99542625 -4.125 4.5 C-3.04605469 3.24703125 -3.04605469 3.24703125 -1.9453125 1.96875 C-1.30335938 1.3190625 -0.66140625 0.669375 0 0 Z " fill="#3733B7" transform="translate(405,333)"/>
<path d="M0 0 C1.670625 0.061875 1.670625 0.061875 3.375 0.125 C2.5396875 0.49625 2.5396875 0.49625 1.6875 0.875 C-1.02471127 2.34106015 -3.26087365 4.15489471 -5.625 6.125 C-5.625 0.92300404 -5.21373417 0.17978394 0 0 Z " fill="#181785" transform="translate(228.625,923.875)"/>
<path d="M0 0 C-0.33 0.99 -0.66 1.98 -1 3 C-4.96 3 -8.92 3 -13 3 C-13 2.67 -13 2.34 -13 2 C-11.58461283 1.66127487 -10.16762037 1.32925376 -8.75 1 C-7.56664062 0.7215625 -7.56664062 0.7215625 -6.359375 0.4375 C-4 0 -4 0 0 0 Z " fill="#52AF5E" transform="translate(731,770)"/>
<path d="M0 0 C0.99 0 1.98 0 3 0 C2.01 2.97 1.02 5.94 0 9 C-0.99 8.67 -1.98 8.34 -3 8 C-2.01 5.36 -1.02 2.72 0 0 Z " fill="#3463B9" transform="translate(895,360)"/>
<path d="M0 0 C-1.61992165 0.86375896 -3.24611861 1.71575854 -4.875 2.5625 C-6.23238281 3.27599609 -6.23238281 3.27599609 -7.6171875 4.00390625 C-8.40351562 4.33261719 -9.18984375 4.66132812 -10 5 C-10.66 4.67 -11.32 4.34 -12 4 C-8.71298741 1.21868166 -4.24676932 -2.12338466 0 0 Z " fill="#58B84E" transform="translate(804,795)"/>
<path d="M0 0 C0 0.99 0 1.98 0 3 C-3.47325181 4.1577506 -6.36067448 4.06866652 -10 4 C-4 0 -4 0 0 0 Z " fill="#4CA56B" transform="translate(699,779)"/>
<path d="M0 0 C3.63 0.66 7.26 1.32 11 2 C7 4 7 4 3.25 3.125 C2.1775 2.75375 1.105 2.3825 0 2 C0 1.34 0 0.68 0 0 Z " fill="#378EA2" transform="translate(546,772)"/>
<path d="M0 0 C5.34844008 0.53484401 9.35796103 2.46690767 14 5 C10.40922594 6.19692469 9.75687727 5.73508446 6.4375 4.1875 C5.65246094 3.83042969 4.86742187 3.47335937 4.05859375 3.10546875 C2 2 2 2 0 0 Z " fill="#53B760" transform="translate(827,534)"/>
<path d="M0 0 C0 0.66 0 1.32 0 2 C-3.63 2.66 -7.26 3.32 -11 4 C-11.33 3.34 -11.66 2.68 -12 2 C-7.8803623 0.70756464 -4.33168317 -0.26252625 0 0 Z " fill="#3232B8" transform="translate(746,349)"/>
<path d="M0 0 C0.99 0.33 1.98 0.66 3 1 C0.93243723 3.7972908 -0.14440371 4.02692273 -3.6875 4.6875 C-4.780625 4.790625 -5.87375 4.89375 -7 5 C-2.25 1.125 -2.25 1.125 0 0 Z " fill="#4E4CC2" transform="translate(848,302)"/>
<path d="M0 0 C0.66 0.33 1.32 0.66 2 1 C-1.49087093 5.0042343 -3.64951939 6.62671065 -9 7 C-6.25604436 4.05278838 -3.61662784 1.80831392 0 0 Z " fill="#4C49BF" transform="translate(874,286)"/>
<path d="M0 0 C3.0916909 2.52956528 3.90931332 5.22454612 5 9 C4.01 9.495 4.01 9.495 3 10 C1.68 7.03 0.36 4.06 -1 1 C-0.67 0.67 -0.34 0.34 0 0 Z " fill="#3947BB" transform="translate(363,527)"/>
<path d="M0 0 C4.99275057 1.27721526 7.57611908 3.17330957 11 7 C10.01 7 9.02 7 8 7 C8 6.34 8 5.68 8 5 C7.05125 4.731875 6.1025 4.46375 5.125 4.1875 C2 3 2 3 0 0 Z " fill="#348D89" transform="translate(591,790)"/>
<path d="M0 0 C2 2 2 2 2.1953125 3.9453125 C2.13020833 5.96354167 2.06510417 7.98177083 2 10 C1.34 10 0.68 10 0 10 C-1.125 3.375 -1.125 3.375 0 0 Z " fill="#58BF43" transform="translate(901,628)"/>
<path d="M0 0 C2.6855594 2.6855594 3.06049974 5.37621328 4 9 C3.01 9.33 2.02 9.66 1 10 C0.63720544 8.71073008 0.28503302 7.41846728 -0.0625 6.125 C-0.35833984 5.04605469 -0.35833984 5.04605469 -0.66015625 3.9453125 C-1 2 -1 2 0 0 Z " fill="#4E5EC4" transform="translate(513,509)"/>
<path d="M0 0 C-1.49835228 4.66154042 -4.88463591 5.86610751 -9 8 C-8.67 7.01 -8.34 6.02 -8 5 C-7.34 5 -6.68 5 -6 5 C-6 4.34 -6 3.68 -6 3 C-2.53846154 0 -2.53846154 0 0 0 Z " fill="#308CA4" transform="translate(812,489)"/>
<path d="M0 0 C1.45792884 -0.05399736 2.91642712 -0.09279177 4.375 -0.125 C5.18710937 -0.14820313 5.99921875 -0.17140625 6.8359375 -0.1953125 C9 0 9 0 11 2 C7.25 3.125 7.25 3.125 5 2 C3.33805547 1.64386903 1.671549 1.30791692 0 1 C0 0.67 0 0.34 0 0 Z " fill="#1A7CA0" transform="translate(525,769)"/>
<path d="M0 0 C0.66 0 1.32 0 2 0 C0.88333826 3.34998521 0.25305075 3.79340222 -2.5625 5.6875 C-3.20316406 6.12449219 -3.84382812 6.56148438 -4.50390625 7.01171875 C-4.99761719 7.33785156 -5.49132812 7.66398437 -6 8 C-6 7.01 -6 6.02 -6 5 C-5.34 5 -4.68 5 -4 5 C-3.67 4.01 -3.34 3.02 -3 2 C-2.01 2 -1.02 2 0 2 C0 1.34 0 0.68 0 0 Z " fill="#464CBD" transform="translate(538,430)"/>
<path d="M0 0 C1.31223496 3.93670488 0.24296256 6.12488144 -1 10 C-1.66 9.67 -2.32 9.34 -3 9 C-2.5020163 5.26512223 -2.12508244 3.18762365 0 0 Z " fill="#3344BB" transform="translate(910,315)"/>
<path d="M0 0 C-1 3 -1 3 -3.375 4.75 C-6 6 -6 6 -9 5 C-7.87926138 4.16094435 -6.75325453 3.32892169 -5.625 2.5 C-4.99851562 2.0359375 -4.37203125 1.571875 -3.7265625 1.09375 C-2 0 -2 0 0 0 Z " fill="#4946BE" transform="translate(894,274)"/>
<path d="M0 0 C0.66 0 1.32 0 2 0 C2.33 1.65 2.66 3.3 3 5 C1.02 5.99 1.02 5.99 -1 7 C-1 4.37886292 -0.68707555 2.49064888 0 0 Z " fill="#DFF0DC" transform="translate(944,943)"/>
<path d="M0 0 C1.56204362 2.84843248 0.81171024 4.87254903 0.0625 7.9375 C-0.2675 7.9375 -0.5975 7.9375 -0.9375 7.9375 C-1.2675 5.9575 -1.5975 3.9775 -1.9375 1.9375 C-4.9075 1.4425 -4.9075 1.4425 -7.9375 0.9375 C-7.9375 0.6075 -7.9375 0.2775 -7.9375 -0.0625 C-2.52610759 -1.38528481 -2.52610759 -1.38528481 0 0 Z " fill="#171683" transform="translate(455.9375,926.0625)"/>
<path d="M0 0 C-2.97180943 1.89865603 -5.51460083 3.35455571 -9 4 C-9 3.34 -9 2.68 -9 2 C-3.375 -1.125 -3.375 -1.125 0 0 Z " fill="#2453AB" transform="translate(614,548)"/>
<path d="M0 0 C1.125 1.75 1.125 1.75 2 4 C1.125 6.25 1.125 6.25 0 8 C-0.66 8 -1.32 8 -2 8 C-1.125 1.125 -1.125 1.125 0 0 Z " fill="#4C4CBF" transform="translate(351,422)"/>
<path d="M0 0 C0.33 0 0.66 0 1 0 C1.125 6.75 1.125 6.75 0 9 C-0.66 9 -1.32 9 -2 9 C-1.125 2.25 -1.125 2.25 0 0 Z " fill="#4646BD" transform="translate(360,393)"/>
<path d="M0 0 C3.3 0.33 6.6 0.66 10 1 C5.64467851 3.17766075 4.53374042 3.03039555 0 2 C0 1.34 0 0.68 0 0 Z " fill="#4343BE" transform="translate(663,350)"/>
<path d="M0 0 C7.75 0.75 7.75 0.75 10 3 C6.34017193 4.21994269 5.41884698 3.49026663 2 2 C1.34 2 0.68 2 0 2 C0 1.34 0 0.68 0 0 Z " fill="#3230B4" transform="translate(555,299)"/>
<path d="M0 0 C1.65 0.33 3.3 0.66 5 1 C5 1.66 5 2.32 5 3 C2.69 3 0.38 3 -2 3 C-1.34 2.01 -0.68 1.02 0 0 Z " fill="#D5D5EA" transform="translate(755,921)"/>
<path d="M0 0 C3.36720387 1.39332574 4.9859524 2.9789286 7 6 C3.75728494 5.4409112 2.06942576 4.5867822 0 2 C0 1.34 0 0.68 0 0 Z " fill="#4EB444" transform="translate(858,552)"/>
<path d="M0 0 C2.97 0.33 5.94 0.66 9 1 C5 3 5 3 2.25 2.125 C1.5075 1.75375 0.765 1.3825 0 1 C0 0.67 0 0.34 0 0 Z " fill="#46A986" transform="translate(786,524)"/>
<path d="M0 0 C6.52307692 0.61538462 6.52307692 0.61538462 8.9375 2.5625 C9.288125 3.036875 9.63875 3.51125 10 4 C3.47692308 3.38461538 3.47692308 3.38461538 1.0625 1.4375 C0.711875 0.963125 0.36125 0.48875 0 0 Z " fill="#3A39B9" transform="translate(570,304)"/>
</svg>
